<?xml version="1.0" encoding="utf-8"?>
<!-- Generator: Adobe Illustrator 17.0.0, SVG Export Plug-In . SVG Version: 6.00 Build 0)  -->
<!DOCTYPE svg PUBLIC "-//W3C//DTD SVG 1.1//EN" "http://www.w3.org/Graphics/SVG/1.1/DTD/svg11.dtd">
<svg version="1.1" id="Layer_1" xmlns="http://www.w3.org/2000/svg" xmlns:xlink="http://www.w3.org/1999/xlink" x="0px" y="0px"
	 width="171px" height="171px" viewBox="0 0 171 171" enable-background="new 0 0 171 171" xml:space="preserve">
<g opacity="0.8">
	<g>
		<path fill="#0DD396" d="M141.318,18.609l-6.102-1.662l-1.499,1.247c-0.471-0.706-0.719-1.528-0.719-2.376v-1.367
			c0-0.765,0.622-1.387,1.387-1.387c0.765,0,1.387,0.622,1.387,1.387v0.555c0,0.153,0.125,0.277,0.277,0.277
			c0.153,0,0.277-0.125,0.277-0.277v-0.555c0-0.765,0.622-1.387,1.387-1.387c0.765,0,1.387,0.622,1.387,1.387v0.555
			c0,0.153,0.125,0.277,0.277,0.277s0.277-0.125,0.277-0.277v-0.555c0-0.765,0.622-1.387,1.387-1.387s1.387,0.622,1.387,1.387v1.367
			c0,0.848-0.249,1.67-0.719,2.376L141.318,18.609z"/>
		<path fill="#333333" d="M133.074,27l-1.11-1H129v-8h-2v11h2v-2h2.702l0.812,0.647l0.002,0.102L132.812,28H134v-1H133.074z M129,27
			h-1v-8h1V27z"/>
		<rect x="128" y="19" fill="#FF3501" width="1" height="8"/>
		<path fill="#0DD396" d="M145.701,31.925c0,1.981-0.787,3.829-2.217,5.201c-1.355,1.302-3.119,2.01-4.991,2.01
			c-0.1,0-0.2-0.002-0.301-0.006c-3.744-0.151-6.846-3.324-6.913-7.074c-0.028-1.505,0.405-2.947,1.234-4.165
			c0.23-0.339,0.491-0.66,0.782-0.961c0.007-0.007,0.014-0.015,0.021-0.022c1.083-1.113,1.722-2.477,1.828-3.879
			c0.011-0.138,0.016-0.277,0.016-0.417l2.751-1.781L139,21.94V27h3.928l0.65-0.426c0.098,0.098,0.193,0.319,0.285,0.422
			C145.052,28.319,145.701,30.131,145.701,31.925z"/>
		<path fill="#333333" d="M143.604,20.83c0.267-0.295,0.433-0.71,0.433-1.137c0-0.918-0.747-1.693-1.664-1.693h-2.065l-0.386-0.455
			l-4.335-1.227l-1.647,1.388l-0.003-0.084L132.187,19H129v1h3.589l3.257-2.576l3.431,1.049l1.167,1.492
			c0.154,0.193,0.222,0.453,0.191,0.698c-0.002,0.015-0.004,0.039-0.007,0.054c-0.003,0.014-0.005,0.032-0.009,0.046
			c-0.001,0.005-0.002,0.011-0.003,0.016c-0.004,0.02-0.01,0.04-0.016,0.059c-0.005,0.017,0.011,0.034,0.004,0.05
			c-0.007,0.018,0,0.036,0,0.052v0.001c-0.079,0.017-0.038,0.034-0.046,0.05c-0.008,0.016-0.028,0.032-0.038,0.047
			c0,0.001-0.006,0.002-0.008,0.003c-0.009,0.015-0.022,0.03-0.032,0.045c-0.011,0.015-0.024,0.03-0.035,0.045
			c-0.019,0.024-0.04,0.046-0.061,0.068c-0.012,0.012-0.024,0.024-0.037,0.035c-0.013,0.012-0.026,0.023-0.04,0.034
			c-0.009,0.007-0.018,0.014-0.028,0.021c-0.358,0.269-0.866,0.233-1.184-0.084l-1.119-1.119l-3.162,2.529l0.33,0.413l0.363,0.454
			l2.386-1.909l0.417,0.417c0.061,0.061,0.129,0.111,0.196,0.162c0.04,0.405,0.188,0.643,0.415,0.894
			c-0.266,0.295-0.432,0.682-0.432,1.11s0.167,0.815,0.432,1.11c-0.266,0.295-0.432,0.681-0.432,1.108
			c0,0.426,0.161,0.815,0.425,1.11c0.041,0.046,0.084,0.069,0.13,0.109c0.294,0.265,0.684,0.406,1.11,0.406h2.219
			c0.651,0,1.627-0.349,1.627-0.895v0.005c0-0.224,0-0.471,0-0.737c0-0.428-0.148-0.812-0.414-1.107
			c0.267-0.295,0.442-0.68,0.442-1.108c0-0.428-0.162-0.814-0.428-1.109c0.267-0.295,0.435-0.681,0.435-1.109
			C144.035,21.512,143.87,21.125,143.604,20.83z M142.373,27h-2.219c-0.306,0-0.555-0.694-0.555-1s0.249-1,0.555-1h2.219
			c0.306,0,0.555,0.694,0.555,1S142.679,27,142.373,27z M142.373,19.193c0.306,0,0.555,0.095,0.555,0.4
			c0,0.306-0.249,0.401-0.555,0.401h-0.651c-0.051,0-0.185-0.528-0.412-0.813l-0.114,0.012H142.373z M140.945,22.741
			c0.28-0.21,0.486-0.741,0.624-0.741h0.804c0.306,0,0.555,0.195,0.555,0.5c0,0.305-0.249,0.5-0.555,0.5h-2.055
			C140.539,23,140.753,22.886,140.945,22.741z M142.373,24c0.306,0,0.555,0,0.555,0S142.679,24,142.373,24h-2.219
			c-0.306,0-0.555,0-0.555,0s0.249,0,0.555,0H142.373z"/>
		<path fill="#F6C358" d="M142.928,26c0,0.306-0.249,1-0.555,1h-2.219c-0.306,0-0.555-0.694-0.555-1s0.249-1,0.555-1h2.219
			C142.679,25,142.928,25.694,142.928,26z"/>
		<path fill="#F6C358" d="M142.928,24c0,0-0.249,0-0.555,0h-2.219c-0.306,0-0.555,0-0.555,0s0.249,0,0.555,0h2.219
			C142.679,24,142.928,24,142.928,24z"/>
		<path fill="#F6C358" d="M142.928,22.5c0,0.305-0.249,0.5-0.555,0.5h-2.055c0.221,0,0.435-0.114,0.628-0.259
			c0.28-0.21,0.486-0.741,0.624-0.741h0.804C142.679,22,142.928,22.195,142.928,22.5z"/>
		<path fill="#F6C358" d="M142.928,19.593c0,0.306-0.249,0.401-0.555,0.401h-0.651c-0.051,0-0.185-0.528-0.412-0.813l-0.114,0.012
			h1.177C142.679,19.193,142.928,19.288,142.928,19.593z"/>
		<path fill="#F6C358" d="M140.635,20.68c-0.031,0.245-0.157,0.463-0.356,0.61c-0.358,0.269-0.866,0.233-1.184-0.084l-1.119-1.119
			l-3.162,2.529l0.33,0.413c-0.106,1.402-0.746,2.801-1.828,3.915C133.31,26.95,133.303,27,133.296,27h-0.222l-1.11-1H129v-6h3.589
			l3.257-2.576l3.431,1.049l1.167,1.492C140.598,20.158,140.666,20.434,140.635,20.68z"/>
		<path fill="#333333" d="M158,39v2h-4.919l-1.524-1.117l-4.675-1.708c-0.445-0.156-0.923-0.15-1.343,0.063
			c-0.421,0.214-0.728,0.567-0.865,1.019c-0.237,0.782,0.115,1.622,0.836,2.004l1.201,0.635l-1.746,0.004l-0.718-1.796
			c-0.236-0.588-0.798-0.969-1.433-0.969c-0.495,0-0.963,0.241-1.253,0.642c-0.289,0.403-0.367,0.923-0.209,1.392l0.168,0.498
			l-1.217-0.665c-0.387-0.212-0.85-0.254-1.269-0.112c-0.419,0.14-0.764,0.451-0.945,0.853c-0.356,0.786-0.028,1.702,0.746,2.085
			l2.738,1.351l5.684,1.156l7.977,0.011L158,45.912V47h2v-8H158z M142.462,40.424c0.187-0.26,0.636-0.205,0.754,0.091l0.555,1.386
			l-1,0.003l-0.368-1.091C142.359,40.681,142.38,40.539,142.462,40.424z M158,44.781L154.522,45h-7.102l-5.422-0.967l-2.673-1.259
			c-0.235-0.116-0.334-0.365-0.226-0.604c0.056-0.124,0.157-0.201,0.287-0.243c0.128-0.044,0.266,0.467,0.385,0.533l1.905,1.54
			h5.265l2.189-1.586l-3.1-1.894c-0.254-0.135-0.378-0.556-0.295-0.832c0.049-0.159,0.156-0.35,0.305-0.425
			c0.148-0.076,0.317-0.116,0.474-0.062L151,40.805L152.745,42H158V44.781z M159,46h-1v-6h1V46z"/>
		<path fill="#F6C358" d="M143.77,41.901l-1,0.003l-0.368-1.091c-0.045-0.134-0.024-0.276,0.058-0.39
			c0.187-0.26,0.636-0.205,0.754,0.091L143.77,41.901z"/>
		<rect x="158" y="40" fill="#61B325" width="1" height="6"/>
		<path fill="#F6C358" d="M158,42v2.781L154.522,45h-7.102l-5.422-0.967l-2.673-1.26c-0.235-0.116-0.334-0.364-0.226-0.603
			c0.056-0.124,0.157-0.201,0.287-0.244c0.128-0.044,0.266,0.467,0.385,0.533l1.905,1.54h5.265l2.189-1.586l-3.1-1.894
			c-0.254-0.135-0.378-0.556-0.295-0.832c0.049-0.159,0.156-0.35,0.305-0.425c0.148-0.076,0.317-0.117,0.474-0.063L151,40.805
			L152.745,42H158z"/>
		<path fill="#FFFFFF" d="M140.729,30.422H139.6c-0.051-0.203-0.13-0.395-0.236-0.569h1.365c0.275,0,0.498-0.223,0.498-0.498
			c0-0.275-0.223-0.498-0.498-0.498h-5.478c-0.275,0-0.498,0.223-0.498,0.498c0,0.275,0.223,0.498,0.498,0.498h2.348
			c0.409,0,0.764,0.231,0.943,0.569h-3.291c-0.275,0-0.498,0.223-0.498,0.498c0,0.275,0.223,0.498,0.498,0.498h3.291
			c-0.179,0.338-0.535,0.569-0.943,0.569h-2.348c-0.201,0-0.383,0.121-0.46,0.307c-0.077,0.186-0.034,0.4,0.108,0.543l3.913,3.913
			c0.097,0.097,0.225,0.146,0.352,0.146c0.127,0,0.255-0.049,0.352-0.146c0.195-0.195,0.195-0.51,0-0.704l-3.063-3.063h1.145
			c0.966,0,1.779-0.667,2.002-1.565h1.128c0.275,0,0.498-0.223,0.498-0.498C141.227,30.645,141.004,30.422,140.729,30.422z"/>
	</g>
</g>
<g opacity="0.8">
	<g>
		<polygon fill="#08446D" points="78.743,25.733 85.396,27.753 85.728,26.659 78.601,24.495 75.434,26.323 76.005,27.313 		"/>
		<polygon fill="#08446D" points="78.743,27.751 85.396,29.771 85.728,28.677 78.601,26.513 75.434,28.34 76.005,29.331 		"/>
		<polygon fill="#08446D" points="78.743,29.769 85.396,31.789 85.728,30.695 78.601,28.53 75.434,30.358 76.005,31.349 		"/>
		<polygon fill="#08446D" points="78.743,31.786 85.396,33.807 85.728,32.712 78.601,30.548 75.434,32.376 76.005,33.366 		"/>
		<polygon fill="#08446D" points="78.743,33.804 85.396,35.824 85.728,34.73 78.601,32.566 75.434,34.394 76.005,35.384 		"/>
		<polygon fill="#08446D" points="78.743,35.822 85.396,37.842 85.728,36.748 78.601,34.584 75.434,36.412 76.005,37.402 		"/>
		<polygon fill="#08446D" points="78.743,37.84 85.396,39.86 85.728,38.766 78.601,36.602 75.434,38.429 76.005,39.42 		"/>
		<polygon fill="#08446D" points="78.743,39.858 85.396,41.878 85.728,40.784 78.601,38.62 75.434,40.447 76.005,41.438 		"/>
		<polygon fill="#08446D" points="89.61,25.733 96.263,27.753 96.595,26.659 89.468,24.495 86.301,26.323 86.872,27.313 		"/>
		<polygon fill="#08446D" points="89.61,23.715 96.263,25.735 96.595,24.641 89.468,22.477 86.301,24.305 86.872,25.295 		"/>
		<polygon fill="#08446D" points="89.61,21.697 96.263,23.717 96.595,22.623 89.468,20.459 86.301,22.287 86.872,23.277 		"/>
		<polygon fill="#08446D" points="89.61,27.751 96.263,29.771 96.595,28.677 89.468,26.513 86.301,28.34 86.872,29.331 		"/>
		<polygon fill="#08446D" points="89.61,29.769 96.263,31.789 96.595,30.695 89.468,28.53 86.301,30.358 86.872,31.349 		"/>
		<polygon fill="#08446D" points="89.61,31.786 96.263,33.807 96.595,32.712 89.468,30.548 86.301,32.376 86.872,33.366 		"/>
		<polygon fill="#08446D" points="89.61,33.804 96.263,35.824 96.595,34.73 89.468,32.566 86.301,34.394 86.872,35.384 		"/>
		<polygon fill="#08446D" points="89.61,35.822 96.263,37.842 96.595,36.748 89.468,34.584 86.301,36.412 86.872,37.402 		"/>
		<polygon fill="#08446D" points="89.61,37.84 96.263,39.86 96.595,38.766 89.468,36.602 86.301,38.429 86.872,39.42 		"/>
		<polygon fill="#08446D" points="89.61,39.858 96.263,41.878 96.595,40.784 89.468,38.62 86.301,40.447 86.872,41.438 		"/>
		<path fill="#08446D" d="M96.275,45.759v-1.904l0.32-1.053l-7.127-2.164l-3.167,1.828l0.32,0.554v2.74h-1.212v-1.904l0.32-1.053
			l-7.127-2.164l-3.167,1.828l0.32,0.554v2.74h-1.689v1.094H99.22v-1.094L96.275,45.759L96.275,45.759z M80.245,45.759v-2.325
			l3.492,0.838v1.487H80.245z M91.112,45.759v-2.325l3.492,0.838v1.487H91.112z"/>
	</g>
	<rect x="98.063" y="42.839" fill="#8C5F50" width="1.142" height="3.426"/>
	<path fill="#A0D755" d="M100.919,41.697c0,1.262-1.023,2.284-2.284,2.284c-1.262,0-2.284-1.023-2.284-2.284
		c0-3.997,1.023-9.137,2.284-9.137C99.896,32.56,100.919,37.699,100.919,41.697z"/>
	<path fill="#8CBE4B" d="M98.063,41.697c0-3.278,0.516-7.319,1.224-8.669c-0.207-0.296-0.426-0.468-0.653-0.468
		c-1.262,0-2.284,5.139-2.284,9.137c0,1.262,1.023,2.284,2.284,2.284c0.228,0,0.445-0.044,0.653-0.106
		C98.581,43.593,98.063,42.73,98.063,41.697z"/>
	<g>
		<rect x="84.358" y="40.555" fill="#959CB5" width="1.142" height="2.855"/>
		<rect x="92.353" y="40.555" fill="#959CB5" width="1.142" height="2.855"/>
	</g>
	<g>
		<rect x="86.642" y="35.415" fill="#8C5F50" width="1.142" height="10.85"/>
		<rect x="75.792" y="41.697" fill="#8C5F50" width="1.142" height="4.568"/>
		<rect x="71.795" y="42.839" fill="#8C5F50" width="1.142" height="3.426"/>
	</g>
	<g>
		<path fill="#959CB5" d="M81.503,41.126c-0.316,0-0.571,0.255-0.571,0.571c0,0.316,0.255,0.571,0.571,0.571
			c0.315,0,0.571,0.256,0.571,0.571v3.426h1.142v-3.426C83.216,41.894,82.447,41.126,81.503,41.126z"/>
		<path fill="#959CB5" d="M96.35,41.126c-0.945,0-1.713,0.769-1.713,1.713v3.426h1.142v-3.426c0-0.315,0.256-0.571,0.571-0.571
			c0.316,0,0.571-0.255,0.571-0.571S96.666,41.126,96.35,41.126z"/>
	</g>
	<g>
		<path fill="#A0D755" d="M80.361,38.841c0,2.208-1.79,3.997-3.997,3.997s-3.997-1.79-3.997-3.997c0-5.139,1.79-10.85,3.997-10.85
			S80.361,33.702,80.361,38.841z"/>
		<path fill="#A0D755" d="M75.792,40.752c0,1.783-1.534,3.229-3.426,3.229s-3.426-1.445-3.426-3.229
			c0-4.151,1.534-8.764,3.426-8.764S75.792,36.601,75.792,40.752z"/>
		<circle fill="#A0D755" cx="87.213" cy="32.56" r="3.997"/>
	</g>
	<path fill="#B4E66E" d="M102.061,46.836H68.939c-0.316,0-0.571-0.255-0.571-0.571s0.255-0.571,0.571-0.571h33.121
		c0.316,0,0.571,0.255,0.571,0.571S102.376,46.836,102.061,46.836z"/>
	<g>
		<path fill="#8CBE4B" d="M74.65,38.841c0-4.688,0.993-9.849,2.284-10.72c-0.187-0.084-0.377-0.13-0.571-0.13
			c-2.208,0-3.997,5.711-3.997,10.85c0,2.208,1.79,3.997,3.997,3.997c0.194,0,0.384-0.019,0.571-0.045
			C75.643,42.516,74.65,40.855,74.65,38.841z"/>
		<path fill="#8CBE4B" d="M71.224,40.752c0-3.746,0.73-7.856,1.683-8.625c-0.177-0.083-0.356-0.139-0.541-0.139
			c-1.892,0-3.426,4.612-3.426,8.764c0,1.783,1.534,3.229,3.426,3.229c0.185,0,0.364-0.018,0.541-0.044
			C71.953,43.692,71.224,42.361,71.224,40.752z"/>
		<path fill="#8CBE4B" d="M85.5,32.56c0-1.811,1.205-3.338,2.855-3.83c-0.362-0.108-0.745-0.168-1.142-0.168
			c-2.208,0-3.997,1.79-3.997,3.997c0,2.208,1.79,3.997,3.997,3.997c0.397,0,0.78-0.06,1.142-0.168
			C86.704,35.898,85.5,34.37,85.5,32.56z"/>
	</g>
	<g>
		<path fill="#EBC9A0" d="M93.495,41.126h-9.137c-0.315,0-0.571-0.256-0.571-0.571v-1.142c0-0.315,0.256-0.571,0.571-0.571h9.137
			c0.315,0,0.571,0.256,0.571,0.571v1.142C94.066,40.87,93.81,41.126,93.495,41.126z"/>
		<path fill="#EBC9A0" d="M95.208,43.981H82.645c-0.316,0-0.571-0.255-0.571-0.571s0.255-0.571,0.571-0.571h12.563
			c0.316,0,0.571,0.255,0.571,0.571S95.524,43.981,95.208,43.981z"/>
	</g>
</g>
<g opacity="0.8">
	<g>
		<rect x="31.749" y="19.516" fill="#FD5D65" width="11.691" height="25.016"/>
		<rect x="31.749" y="19.516" fill="#E54E5C" width="11.691" height="1.21"/>
		<polyline fill="#BACBD8" points="38.75,44.532 38.75,39.18 41.333,39.18 41.333,44.532 		"/>
		<polyline fill="#4D4D4D" points="38.75,43.494 38.75,38.142 41.333,38.142 41.333,43.494 		"/>
		<g>
			<rect x="33.856" y="21.476" fill="#CDEFF7" width="2.583" height="4.084"/>
			<rect x="38.75" y="21.476" fill="#CDEFF7" width="2.583" height="4.084"/>
			<rect x="33.856" y="27.031" fill="#CDEFF7" width="2.583" height="4.084"/>
			<rect x="38.75" y="27.031" fill="#CDEFF7" width="2.583" height="4.084"/>
			<rect x="33.856" y="32.587" fill="#CDEFF7" width="2.583" height="4.084"/>
			<rect x="38.75" y="32.587" fill="#CDEFF7" width="2.583" height="4.084"/>
			<rect x="33.856" y="38.142" fill="#CDEFF7" width="2.583" height="4.084"/>
		</g>
		<rect x="30.39" y="18.94" fill="#BACBD8" width="14.41" height="1.153"/>
		<g>
			<path fill="#E54E5C" d="M33.683,25.733h2.929v-4.43h-2.929V25.733L33.683,25.733z M34.029,22.744h0.946v2.643h-0.946V22.744z
				 M35.321,25.387v-2.643h0.945v2.643H35.321z M36.266,21.649v0.749h-2.237v-0.749H36.266z"/>
			<path fill="#E54E5C" d="M41.506,21.303h-2.929v4.43h2.929V21.303z M41.16,21.649v0.749h-2.237v-0.749H41.16z M38.923,22.744
				h0.946v2.643h-0.946V22.744z M40.214,25.387v-2.643h0.946v2.643H40.214z"/>
			<path fill="#E54E5C" d="M33.683,31.288h2.929v-4.43h-2.929V31.288L33.683,31.288z M34.029,28.316h0.946v2.626h-0.946V28.316z
				 M35.321,30.942v-2.626h0.945v2.626H35.321z M36.266,27.204v0.766h-2.237v-0.766H36.266z"/>
			<path fill="#E54E5C" d="M41.506,26.858h-2.929v4.43h2.929V26.858z M41.16,27.204v0.766h-2.237v-0.766H41.16z M38.923,28.316
				h0.946v2.626h-0.946V28.316z M40.214,30.942v-2.626h0.946v2.626H40.214z"/>
			<path fill="#E54E5C" d="M33.683,36.844h2.929v-4.43h-2.929V36.844L33.683,36.844z M34.029,33.888h0.946v2.61h-0.946V33.888z
				 M35.321,36.498v-2.61h0.945v2.61H35.321z M36.266,32.76v0.782h-2.237V32.76H36.266z"/>
			<path fill="#E54E5C" d="M41.506,32.414h-2.929v4.43h2.929V32.414z M41.16,32.76v0.782h-2.237V32.76H41.16z M38.923,33.888h0.946
				v2.61h-0.946V33.888z M40.214,36.498v-2.61h0.946v2.61H40.214z"/>
			<path fill="#E54E5C" d="M33.683,42.399h2.929v-4.43h-2.929V42.399L33.683,42.399z M34.029,39.459h0.946v2.594h-0.946V39.459z
				 M35.321,42.053v-2.594h0.945v2.594H35.321z M36.266,38.315v0.798h-2.237v-0.798H36.266L36.266,38.315z"/>
			<path fill="#E54E5C" d="M41.828,37.969h-0.322h-2.929h-0.322c-0.096,0-0.173,0.077-0.173,0.173s0.077,0.173,0.173,0.173h0.322
				v6.216h0.346V43.61h2.237v0.922h0.346v-6.216h0.322c0.096,0,0.173-0.077,0.173-0.173S41.924,37.969,41.828,37.969z M41.16,43.264
				h-2.237v-4.948h2.237V43.264z"/>
			<path fill="#E54E5C" d="M40.765,41.189c0.096,0,0.173-0.077,0.173-0.173v-0.634c0-0.096-0.077-0.173-0.173-0.173
				s-0.173,0.077-0.173,0.173v0.634C40.592,41.111,40.669,41.189,40.765,41.189z"/>
		</g>
	</g>
	<g id="XMLID_441_">
		<g id="XMLID_479_">
			<rect id="XMLID_480_" x="9.995" y="44.214" fill="#91DC5A" width="37.176" height="2.731"/>
		</g>
		<g id="XMLID_477_">
			<rect id="XMLID_478_" x="15.848" y="12.607" fill="#006C70" width="16.389" height="34.338"/>
		</g>
		<g id="XMLID_475_">
			<rect id="XMLID_476_" x="19.36" y="12.607" fill="#00A1A7" width="9.365" height="34.338"/>
		</g>
		<g id="XMLID_473_">
			<rect id="XMLID_474_" x="19.36" y="41.483" fill="#00D7DF" width="9.365" height="5.463"/>
		</g>
		<g id="XMLID_466_">
			<g id="XMLID_471_">
				<rect id="XMLID_472_" x="18.189" y="17.29" fill="#FFFFFF" width="2.341" height="3.122"/>
			</g>
			<g id="XMLID_469_">
				<rect id="XMLID_470_" x="22.871" y="17.29" fill="#FFFFFF" width="2.341" height="3.122"/>
			</g>
			<g id="XMLID_467_">
				<rect id="XMLID_468_" x="27.554" y="17.29" fill="#FFFFFF" width="2.341" height="3.122"/>
			</g>
		</g>
		<g id="XMLID_459_">
			<g id="XMLID_464_">
				<rect id="XMLID_465_" x="18.189" y="22.753" fill="#FFFFFF" width="2.341" height="3.122"/>
			</g>
			<g id="XMLID_462_">
				<rect id="XMLID_463_" x="22.871" y="22.753" fill="#FFFFFF" width="2.341" height="3.122"/>
			</g>
			<g id="XMLID_460_">
				<rect id="XMLID_461_" x="27.554" y="22.753" fill="#FFFFFF" width="2.341" height="3.122"/>
			</g>
		</g>
		<g id="XMLID_452_">
			<g id="XMLID_457_">
				<rect id="XMLID_458_" x="18.189" y="28.216" fill="#FFFFFF" width="2.341" height="3.122"/>
			</g>
			<g id="XMLID_455_">
				<rect id="XMLID_456_" x="22.871" y="28.216" fill="#FFFFFF" width="2.341" height="3.122"/>
			</g>
			<g id="XMLID_453_">
				<rect id="XMLID_454_" x="27.554" y="28.216" fill="#FFFFFF" width="2.341" height="3.122"/>
			</g>
		</g>
		<g id="XMLID_445_">
			<g id="XMLID_450_">
				<rect id="XMLID_451_" x="18.189" y="33.679" fill="#FFFFFF" width="2.341" height="3.122"/>
			</g>
			<g id="XMLID_448_">
				<rect id="XMLID_449_" x="22.871" y="33.679" fill="#FFFFFF" width="2.341" height="3.122"/>
			</g>
			<g id="XMLID_446_">
				<rect id="XMLID_447_" x="27.554" y="33.679" fill="#FFFFFF" width="2.341" height="3.122"/>
			</g>
		</g>
		<g id="XMLID_442_">
			<g id="XMLID_443_">
				<rect id="XMLID_444_" x="22.871" y="41.483" fill="#FFFFFF" width="2.341" height="5.463"/>
			</g>
		</g>
	</g>
</g>
<g opacity="0.8">
	<g>
		<path fill="#006C70" d="M145.148,76.962l-8.037-2.189l-1.975,1.643c-0.62-0.93-0.948-2.012-0.948-3.129v-1.801
			c0-1.008,0.819-1.827,1.827-1.827c1.008,0,1.827,0.819,1.827,1.827v0.731c0,0.201,0.164,0.365,0.365,0.365
			s0.365-0.164,0.365-0.365v-0.731c0-1.008,0.819-1.827,1.827-1.827c1.008,0,1.827,0.819,1.827,1.827v0.731
			c0,0.201,0.164,0.365,0.365,0.365s0.365-0.164,0.365-0.365v-0.731c0-1.008,0.819-1.827,1.827-1.827
			c1.008,0,1.827,0.819,1.827,1.827v1.801c0,1.117-0.327,2.2-0.948,3.129L145.148,76.962z"/>
		<path fill="#333333" d="M133.323,87h-1.462H129V77h-4v13h4v-2h2.517l1.069,0.86l0.003-0.028l0.39,0.168H134v-2H133.323z M127,88
			h-1V78h1V88z"/>
		<rect x="126" y="78" fill="#6DC82A" width="1" height="10"/>
		<path fill="#006C70" d="M149.956,94.501c0,2.61-1.037,5.043-2.92,6.851c-1.785,1.715-4.108,2.647-6.574,2.647
			c-0.132,0-0.264-0.002-0.396-0.008c-4.932-0.199-9.017-4.378-9.106-9.317c-0.036-1.982,0.533-3.882,1.626-5.487
			c0.304-0.446,0.647-0.869,1.029-1.266c0.009-0.01,0.019-0.02,0.028-0.029c1.426-1.467,2.268-3.263,2.408-5.11
			c0.014-0.182,0.021-0.365,0.021-0.549l3.56-2.346L141,81.349V88h5.303l0.856-0.553c0.13,0.129,0.255,0.424,0.376,0.559
			C149.101,89.748,149.956,92.139,149.956,94.501z"/>
		<path fill="#333333" d="M147.194,79.888c0.351-0.388,0.57-0.515,0.57-1.078c0-1.209-0.984-1.81-2.192-1.81h-2.72l-0.508-1.019
			l-5.71-1.826l-2.17,1.723l-0.005,0.099L132.156,78h-3.836l0,0h4.365l4.291-2.996l4.519,1.58l1.537,2.065
			c0.203,0.254,0.293,0.647,0.252,0.969c-0.002,0.02-0.006,0.076-0.009,0.095c-0.003,0.019-0.007,0.054-0.011,0.073
			c-0.001,0.006-0.003,0.021-0.005,0.027c-0.006,0.026-0.013,0.056-0.022,0.081c-0.007,0.022,0.393,0.046,0.384,0.067
			c-0.009,0.023,0.379,0.047,0.379,0.07c0,0.001,0,0.001,0,0.001c-1,0.023-0.429,0.044-0.44,0.066
			c-0.011,0.022-0.226,0.042-0.239,0.062c0,0.002-0.103,0.003-0.105,0.005c-0.012,0.02-0.076,0.04-0.09,0.059
			c-0.014,0.02-0.055,0.04-0.07,0.059c-0.025,0.031-0.064,0.061-0.093,0.089c-0.016,0.016-0.038,0.031-0.054,0.046
			c-0.017,0.015-0.038,0.031-0.055,0.045c-0.012,0.01-0.025,0.019-0.038,0.028c-0.471,0.354-1.142,0.306-1.56-0.111l-1.475-1.474
			l-4.165,3.331l0.435,0.544l0.478,0.598l3.143-2.514l0.549,0.55c0.08,0.08,0.17,0.146,0.259,0.214
			c0.053,0.533,0.247,0.847,0.546,1.178c-0.351,0.389-0.57,0.899-0.57,1.462c0,0.563,0.22,1.073,0.57,1.462
			c-0.351,0.388-0.57,0.896-0.57,1.46c0,0.561,0.212,1.074,0.559,1.462c0.054,0.06,0.11-0.075,0.171-0.022
			c0.388,0.349,0.9,0.369,1.462,0.369h2.923c0.858,0,1.428-0.106,1.428-0.826V88.17c0-0.294,0.497-0.626,0.497-0.977
			c0-0.563-0.086-1.072-0.437-1.461c0.351-0.389,0.637-0.897,0.637-1.461c0-0.564-0.186-1.073-0.537-1.462
			c0.351-0.388,0.587-0.898,0.587-1.461C147.747,80.785,147.544,80.276,147.194,79.888z M145.572,87h-2.923c-0.403,0-0.73,0-0.73,0
			c0-1,0.328,0,0.73,0H145.572c0.403,0,0.73-1,0.73,0C146.303,87,145.975,87,145.572,87z M145.572,78c0.403,0,0.73,0,0.73,0
			S145.975,78,145.572,78h-0.857c-0.067,0-0.243-0.168-0.543-0.543L144.022,78H145.572z M143.692,81.317
			c0.369-0.276,0.64-0.317,0.822-1.317h1.059c0.403,0,0.73,0.598,0.73,1.001c0,0.401-0.328,0.999-0.73,0.999h-2.707
			C143.156,82,143.438,81.508,143.692,81.317z M145.572,84c0.403,0,0.73,0.597,0.73,1s-0.328,1-0.73,1h-2.923
			c-0.403,0-0.73-0.597-0.73-1s0.328-1,0.73-1H145.572z"/>
		<path fill="#F6C358" d="M146.303,87c0,0-0.328,0-0.73,0h-2.923c-0.403,0-0.73,0-0.73,0c0-1,0.328,0,0.73,0h2.923
			C145.975,87,146.303,86,146.303,87z"/>
		<path fill="#F6C358" d="M146.303,85c0,0.403-0.328,1-0.73,1h-2.923c-0.403,0-0.73-0.597-0.73-1s0.328-1,0.73-1h2.923
			C145.975,84,146.303,84.597,146.303,85z"/>
		<path fill="#F6C358" d="M146.303,81.001c0,0.401-0.328,0.999-0.73,0.999h-2.707c0.292,0,0.573-0.492,0.827-0.683
			c0.369-0.276,0.64-0.317,0.822-1.317h1.059C145.975,80,146.303,80.598,146.303,81.001z"/>
		<path fill="#F6C358" d="M146.303,78c0,0-0.328,0-0.73,0h-0.857c-0.067,0-0.243-0.168-0.543-0.543L144.022,78h1.55
			C145.975,78,146.303,78,146.303,78z"/>
		<path fill="#F6C358" d="M143.283,79.689c-0.041,0.323-0.207,0.609-0.468,0.804c-0.471,0.354-1.141,0.306-1.559-0.111l-1.475-1.475
			l-4.164,3.331l0.435,0.544c-0.14,1.847-0.982,3.182-2.408,4.649c-0.01,0.01-0.019-0.432-0.028-0.432h-0.292h-1.462H129v-9h3.684
			l4.291-2.996l4.519,1.58l1.537,2.065C143.235,78.903,143.324,79.366,143.283,79.689z"/>
		<path fill="#FFFFFF" d="M144.371,92.521h-1.487c-0.067-0.267-0.171-0.52-0.311-0.75h1.798c0.362,0,0.656-0.294,0.656-0.656
			s-0.294-0.656-0.656-0.656h-7.215c-0.362,0-0.656,0.294-0.656,0.656s0.294,0.656,0.656,0.656h3.092
			c0.538,0,1.007,0.304,1.243,0.75h-4.335c-0.362,0-0.656,0.294-0.656,0.656s0.294,0.656,0.656,0.656h4.335
			c-0.236,0.445-0.704,0.75-1.243,0.75h-3.092c-0.265,0-0.504,0.16-0.606,0.405c-0.102,0.245-0.045,0.527,0.142,0.715l5.154,5.154
			c0.128,0.128,0.296,0.192,0.464,0.192c0.168,0,0.336-0.064,0.464-0.192c0.256-0.256,0.256-0.671,0-0.928l-4.034-4.034h1.509
			c1.272,0,2.343-0.879,2.637-2.062h1.486c0.362,0,0.656-0.294,0.656-0.656C145.027,92.815,144.733,92.521,144.371,92.521z"/>
		<g>
			<g>
				<path fill="#FFD100" d="M159.081,90.46c0,0.702-0.606,1.316-0.779,1.963c-0.179,0.67,0.034,1.503-0.305,2.09
					c-0.344,0.595-1.176,0.825-1.659,1.308c-0.483,0.483-0.713,1.315-1.308,1.659c-0.587,0.339-1.42,0.126-2.09,0.305
					c-0.648,0.173-1.261,0.779-1.963,0.779c-0.702,0-1.316-0.606-1.963-0.779c-0.67-0.179-1.503,0.034-2.09-0.305
					c-0.595-0.344-0.825-1.176-1.308-1.659c-0.483-0.483-1.315-0.713-1.659-1.308c-0.339-0.587-0.126-1.42-0.305-2.09
					c-0.173-0.648-0.779-1.261-0.779-1.963c0-0.702,0.606-1.316,0.779-1.963c0.179-0.67-0.034-1.503,0.305-2.09
					c0.344-0.595,1.176-0.825,1.659-1.308c0.483-0.483,0.713-1.315,1.308-1.659c0.587-0.339,1.42-0.126,2.09-0.305
					c0.648-0.173,1.261-0.779,1.963-0.779c0.702,0,1.316,0.606,1.963,0.779c0.67,0.179,1.503-0.034,2.09,0.305
					c0.595,0.344,0.825,1.176,1.308,1.659c0.483,0.483,1.315,0.713,1.659,1.308c0.339,0.587,0.126,1.42,0.305,2.09
					C158.475,89.144,159.081,89.757,159.081,90.46z"/>
			</g>
			<g>
				<path fill="#FF9500" d="M145.614,85.098c-0.483,0.483-1.315,0.713-1.659,1.308c-0.34,0.587-0.126,1.42-0.305,2.09
					c-0.173,0.648-0.779,1.261-0.779,1.963c0,0.702,0.606,1.316,0.779,1.963c0.179,0.67-0.034,1.503,0.305,2.09
					c0.344,0.595,1.176,0.825,1.659,1.308c0.483,0.483,0.713,1.315,1.308,1.659c0.587,0.34,1.42,0.126,2.09,0.305
					c0.648,0.173,1.261,0.779,1.963,0.779c0.702,0,1.316-0.606,1.963-0.779c0.67-0.179,1.503,0.034,2.09-0.305
					c0.595-0.344,0.825-1.176,1.308-1.659l0,0L145.614,85.098z"/>
			</g>
			<g>
				<circle fill="#FFFFFF" cx="150.976" cy="90.46" r="5.752"/>
			</g>
			<g>
				<path fill="#FFD100" d="M150.976,96.212c1.588,0,3.026-0.644,4.067-1.685l-8.135-8.135c-1.041,1.041-1.685,2.479-1.685,4.067
					C145.224,93.637,147.799,96.212,150.976,96.212z"/>
			</g>
			<g>
				<circle fill="#FF4F19" cx="150.976" cy="90.46" r="4.968"/>
			</g>
			<g>
				<path fill="#E7001E" d="M147.463,86.947c-0.899,0.899-1.455,2.141-1.455,3.513c0,2.744,2.224,4.968,4.968,4.968
					c1.372,0,2.614-0.556,3.513-1.455L147.463,86.947z"/>
			</g>
			<g>
				<g>
					<path fill="#FFFFFF" d="M148.623,93.205c-0.1,0-0.201-0.038-0.277-0.115c-0.153-0.153-0.153-0.402,0-0.555l4.706-4.706
						c0.153-0.153,0.401-0.153,0.555,0c0.153,0.153,0.153,0.402,0,0.555L148.9,93.09C148.823,93.167,148.723,93.205,148.623,93.205z
						"/>
				</g>
			</g>
			<g>
				<g>
					<path fill="#FFFFFF" d="M149.407,90.329c-0.793,0-1.438-0.645-1.438-1.438c0-0.793,0.645-1.438,1.438-1.438
						c0.793,0,1.438,0.645,1.438,1.438C150.845,89.684,150.2,90.329,149.407,90.329z M149.407,88.237
						c-0.361,0-0.654,0.293-0.654,0.654s0.293,0.654,0.654,0.654c0.361,0,0.654-0.293,0.654-0.654S149.767,88.237,149.407,88.237z"
						/>
				</g>
			</g>
			<g>
				<g>
					<path fill="#FFFFFF" d="M152.545,93.467c-0.793,0-1.438-0.645-1.438-1.438c0-0.793,0.645-1.438,1.438-1.438
						s1.438,0.645,1.438,1.438C153.983,92.821,153.337,93.467,152.545,93.467z M152.545,91.375c-0.361,0-0.654,0.293-0.654,0.654
						s0.293,0.654,0.654,0.654c0.361,0,0.654-0.293,0.654-0.654S152.905,91.375,152.545,91.375z"/>
				</g>
			</g>
		</g>
	</g>
</g>
<g opacity="0.8">
	<g>
		<path fill="#45B4D6" d="M100.52,159.304c-2.904,0-2.904-0.797-5.808-0.797c-2.904,0-2.904,0.797-5.808,0.797
			c-2.904,0-2.904-0.797-5.807-0.797c-2.904,0-2.904,0.797-5.807,0.797c-2.904,0-2.904-0.797-5.807-0.797v-2.795
			c2.904,0,2.904,0.797,5.807,0.797c2.904,0,2.904-0.797,5.807-0.797c2.904,0,2.904,0.797,5.807,0.797
			c2.904,0,2.904-0.797,5.808-0.797c2.904,0,2.904,0.797,5.808,0.797"/>
		<g>
			<polygon fill="#FCD577" points="78.473,150.501 78.473,158.247 76.681,158.288 76.681,150.501 			"/>
			<polygon fill="#FCD577" points="95.322,150.501 95.322,157.517 93.53,157.559 93.53,150.501 			"/>
		</g>
		<g>
			<rect x="76.68" y="150.501" fill="#EAC36E" width="1.792" height="2.111"/>
			<rect x="93.529" y="150.501" fill="#EAC36E" width="1.792" height="2.111"/>
		</g>
		<polyline fill="#CFDCE5" points="75.008,148.533 75.008,151.298 96.995,151.298 96.995,148.533 96.995,146.542 96.995,141.124 
			96.995,138.034 75.008,138.034 75.008,146.542 		"/>
		<polyline fill="#BAC6CC" points="75.008,139.066 75.008,139.412 96.995,139.412 96.995,139.066 96.995,138.818 96.995,138.141 
			96.995,137.755 75.008,137.755 75.008,138.818 		"/>
		<g>
			<path fill="#415E72" d="M88.272,150.7h-4.541c-0.33,0-0.598,0.268-0.598,0.598v6.22c0,0.33,0.268,0.598,0.598,0.598
				s0.598-0.268,0.598-0.598v-1.122h3.346v1.891c0,0.33,0.268,0.598,0.598,0.598c0.33,0,0.598-0.268,0.598-0.598v-6.99
				C88.87,150.968,88.602,150.7,88.272,150.7z M87.675,151.895v0.98h-3.346v-0.98H87.675z M84.329,155.202v-1.131h3.346v1.131
				L84.329,155.202L84.329,155.202z"/>
			<rect x="82.974" y="142.08" fill="#415E72" width="6.055" height="9.217"/>
		</g>
		<polygon fill="#BAC6CC" points="89.427,151.298 88.631,151.298 88.631,142.479 83.373,142.479 83.373,151.298 82.576,151.298 
			82.576,141.682 89.427,141.682 		"/>
		<g>
			<rect x="75.008" y="141.124" fill="#415E72" width="2.619" height="5.417"/>
			<rect x="94.376" y="141.124" fill="#415E72" width="2.619" height="5.417"/>
		</g>
		<g>
			<path fill="#FCD577" d="M75.57,148.533h2.057v-1.992h-3.983v0.066C73.644,147.671,74.506,148.533,75.57,148.533z"/>
			<path fill="#FCD577" d="M96.433,148.533h-2.057v-1.992h3.983v0.066C98.359,147.671,97.497,148.533,96.433,148.533z"/>
		</g>
		<g>
			<path fill="#BAC6CC" d="M79.827,151.768c-0.33,0-0.598-0.268-0.598-0.598v-4.23c0-0.33,0.268-0.598,0.598-0.598
				c0.33,0,0.598,0.268,0.598,0.598v4.23C80.425,151.5,80.157,151.768,79.827,151.768z"/>
			<path fill="#BAC6CC" d="M79.827,145.546c-0.33,0-0.598-0.268-0.598-0.598v-6.914c0-0.33,0.268-0.598,0.598-0.598
				c0.33,0,0.598,0.268,0.598,0.598v6.914C80.425,145.278,80.157,145.546,79.827,145.546z"/>
			<path fill="#BAC6CC" d="M82.914,140.129c-0.33,0-0.598-0.268-0.598-0.598v-1.497c0-0.33,0.268-0.598,0.598-0.598
				c0.33,0,0.598,0.268,0.598,0.598v1.497C83.512,139.861,83.244,140.129,82.914,140.129z"/>
			<path fill="#BAC6CC" d="M89.089,140.129c-0.33,0-0.598-0.268-0.598-0.598v-1.497c0-0.33,0.268-0.598,0.598-0.598
				c0.33,0,0.598,0.268,0.598,0.598v1.497C89.686,139.861,89.419,140.129,89.089,140.129z"/>
			<path fill="#BAC6CC" d="M92.176,151.768c-0.33,0-0.598-0.268-0.598-0.598v-7.815c0-0.33,0.268-0.598,0.598-0.598
				c0.33,0,0.598,0.268,0.598,0.598v7.815C92.773,151.5,92.506,151.768,92.176,151.768z"/>
			<path fill="#BAC6CC" d="M92.176,141.961c-0.33,0-0.598-0.268-0.598-0.598v-3.329c0-0.33,0.268-0.598,0.598-0.598
				c0.33,0,0.598,0.268,0.598,0.598v3.329C92.773,141.693,92.506,141.961,92.176,141.961z"/>
			<path fill="#BAC6CC" d="M86.002,141.164c-0.33,0-0.598-0.268-0.598-0.598v-2.532c0-0.33,0.268-0.598,0.598-0.598
				c0.33,0,0.598,0.268,0.598,0.598v2.532C86.599,140.897,86.332,141.164,86.002,141.164z"/>
		</g>
		<polygon fill="#FCD577" points="101.775,138.034 70.228,138.034 86.002,126.765 		"/>
		<polygon fill="#EAC36E" points="76.831,138.034 86.002,126.765 70.228,138.034 		"/>
		<path fill="#4EBFED" d="M100.52,161.097c-2.904,0-2.904-0.797-5.808-0.797c-2.904,0-2.904,0.797-5.808,0.797
			c-2.904,0-2.904-0.797-5.807-0.797c-2.904,0-2.904,0.797-5.807,0.797c-2.904,0-2.904-0.797-5.807-0.797v-2.795
			c2.904,0,2.904,0.797,5.807,0.797c2.904,0,2.904-0.797,5.807-0.797c2.904,0,2.904,0.797,5.807,0.797
			c2.904,0,2.904-0.797,5.808-0.797c2.904,0,2.904,0.797,5.808,0.797"/>
		<path fill="#FCD577" d="M96.995,151.895H75.008c-0.33,0-0.598-0.268-0.598-0.598s0.268-0.598,0.598-0.598h21.987
			c0.33,0,0.598,0.268,0.598,0.598S97.325,151.895,96.995,151.895z"/>
	</g>
	<path fill="#324A5E" d="M93.271,161.007c0.195,0.016,0.391,0.016,0.586,0.016c0.195,0,0.391,0,0.586-0.016v-15.981h-1.173V161.007
		L93.271,161.007z"/>
	<path fill="#FFFFFF" d="M100.96,155.615H86.755c-0.407,0-0.733-0.326-0.733-0.733v-7.738c0-0.407,0.326-0.733,0.733-0.733h14.189
		c0.407,0,0.733,0.326,0.733,0.733v7.754C101.693,155.29,101.351,155.615,100.96,155.615z"/>
	<g>
		<path fill="#FF7058" d="M93.157,152.422c0,0.147-0.13,0.277-0.277,0.277h-1.548c-0.163,0-0.277-0.13-0.277-0.277v-2.818
			c0-0.147,0.13-0.277,0.277-0.277h1.548c0.163,0,0.277,0.13,0.277,0.277c0,0.163-0.13,0.277-0.277,0.277h-1.271v0.847h0.977
			c0.147,0,0.277,0.13,0.277,0.277s-0.13,0.277-0.277,0.277h-0.977v0.863h1.271C93.026,152.146,93.157,152.26,93.157,152.422z"/>
		<path fill="#FF7058" d="M96.04,152.585l-1.45-2.085v1.922c0,0.147-0.13,0.277-0.277,0.277s-0.277-0.13-0.277-0.277v-2.818
			c0-0.147,0.114-0.277,0.277-0.277c0.081,0,0.179,0.049,0.228,0.114l1.45,2.085v-1.922c0-0.147,0.13-0.277,0.277-0.277
			s0.277,0.13,0.277,0.277v2.818c0,0.147-0.13,0.277-0.277,0.277C96.187,152.699,96.089,152.667,96.04,152.585z"/>
		<path fill="#FF7058" d="M99.396,149.327c0.147,0,0.277,0.13,0.277,0.277c0,0.163-0.13,0.277-0.277,0.277h-0.554v2.525
			c0,0.147-0.13,0.277-0.277,0.277s-0.277-0.13-0.277-0.277v-2.509h-0.57c-0.147,0-0.277-0.13-0.277-0.277s0.13-0.277,0.277-0.277
			h1.678V149.327z"/>
		<path fill="#FF7058" d="M90.338,150.451v-0.016c0-0.277-0.098-0.538-0.277-0.749l0,0c-0.212-0.261-0.538-0.424-0.896-0.424h-0.831
			c-0.163,0-0.293,0.13-0.293,0.293v2.916c0,0.163,0.13,0.293,0.293,0.293s0.293-0.13,0.293-0.293v-0.847h0.505l0.635,1.01
			c0.13,0.212,0.358,0.114,0.407,0.098c0.098-0.049,0.212-0.195,0.098-0.407l-0.521-0.847
			C90.078,151.266,90.338,150.891,90.338,150.451z M89.133,151.005h-0.521v-1.173h0.521c0.326,0,0.586,0.261,0.586,0.586
			S89.459,151.005,89.133,151.005z"/>
	</g>
</g>
<g opacity="0.8">
	<g>
		<path fill="#D68231" d="M22.92,85.521c0,0.42-0.344,0.764-0.764,0.764h-5.461c-0.42,0-0.764-0.344-0.764-0.764v-7.893
			c0-0.42,0.344-0.764,0.764-0.764h5.461c0.42,0,0.764,0.344,0.764,0.764V85.521z"/>
		<rect x="15.931" y="78.177" opacity="0.1" enable-background="new    " width="4.031" height="1.94"/>
		<rect x="18.889" y="81.17" opacity="0.1" enable-background="new    " width="4.031" height="1.94"/>
		<polygon fill="#D1D3D3" points="14.529,86.042 14.529,101.866 42.878,101.866 42.878,86.042 28.704,77.196 		"/>
		<polygon opacity="0.1" enable-background="new    " points="28.704,77.196 14.529,86.042 14.529,89.25 28.704,80.404 
			42.878,89.25 42.878,86.042 		"/>
		<rect x="38.847" y="89.109" opacity="0.1" enable-background="new    " width="4.031" height="1.94"/>
		<rect x="33.333" y="97.912" opacity="0.1" enable-background="new    " width="4.031" height="1.94"/>
		<rect x="28.359" y="89.078" opacity="0.1" enable-background="new    " width="4.031" height="1.94"/>
		<rect x="14.529" y="93.811" opacity="0.1" enable-background="new    " width="4.031" height="1.94"/>
		<rect x="17.695" y="86.865" opacity="0.1" enable-background="new    " width="4.031" height="1.94"/>
		<rect x="25.242" y="92.342" fill="#D68231" width="6.923" height="9.524"/>
		<g>
			<circle fill="#FFFFFF" cx="28.703" cy="95.756" r="1.356"/>
			<circle fill="#FFFFFF" cx="28.703" cy="84.285" r="2.884"/>
		</g>
		<path opacity="0.2" enable-background="new    " d="M28.703,81.402c-1.593,0-2.884,1.291-2.884,2.884
			c0,0.174,0.016,0.344,0.046,0.509c0.241-1.35,1.419-2.374,2.838-2.374c1.419,0,2.597,1.025,2.838,2.374
			c0.029-0.165,0.046-0.335,0.046-0.509C31.587,82.693,30.296,81.402,28.703,81.402z"/>
		<polygon fill="#D68231" points="31.587,83.712 29.276,83.712 29.276,81.402 28.13,81.402 28.13,83.712 25.82,83.712 25.82,84.858 
			28.13,84.858 28.13,87.169 29.276,87.169 29.276,84.858 31.587,84.858 		"/>
		<path fill="#FFB819" d="M28.703,87.742c-1.906,0-3.457-1.551-3.457-3.457c0-1.906,1.551-3.457,3.457-3.457
			c1.906,0,3.457,1.551,3.457,3.457C32.16,86.191,30.609,87.742,28.703,87.742z M28.703,81.974c-1.274,0-2.311,1.037-2.311,2.311
			c0,1.274,1.037,2.311,2.311,2.311s2.311-1.037,2.311-2.311C31.014,83.011,29.977,81.974,28.703,81.974z"/>
		<rect x="25.242" y="92.342" opacity="0.1" enable-background="new    " width="6.923" height="1.204"/>
		<rect x="17.027" y="90.068" fill="#FFFFFF" width="4.954" height="5.599"/>
		<rect x="17.027" y="90.068" opacity="0.2" enable-background="new    " width="4.954" height="1.234"/>
		<rect x="17.027" y="92.294" fill="#D68231" width="4.954" height="1.146"/>
		
			<rect x="17.027" y="90.068" fill="none" stroke="#FFB819" stroke-width="0.6376" stroke-linejoin="round" stroke-miterlimit="10" width="4.954" height="5.599"/>
		<rect x="35.427" y="90.068" fill="#FFFFFF" width="4.954" height="5.599"/>
		<rect x="35.427" y="90.068" opacity="0.2" enable-background="new    " width="4.954" height="1.234"/>
		<rect x="35.427" y="92.294" fill="#D68231" width="4.954" height="1.146"/>
		<path fill="#FFB819" d="M40.381,96.24h-4.954c-0.316,0-0.573-0.256-0.573-0.573v-5.599c0-0.316,0.256-0.573,0.573-0.573h4.954
			c0.316,0,0.573,0.256,0.573,0.573v5.599C40.954,95.983,40.697,96.24,40.381,96.24z M36,95.094h3.808v-4.453H36V95.094z"/>
		<path fill="#00AD68" d="M45.705,103.591c0,0.207-0.17,0.377-0.377,0.377h-33.25c-0.207,0-0.377-0.169-0.377-0.377v-1.348
			c0-0.207,0.17-0.377,0.377-0.377h33.25c0.207,0,0.377,0.169,0.377,0.377L45.705,103.591L45.705,103.591z"/>
		<rect x="23.061" y="101.866" fill="#333E48" width="11.284" height="2.102"/>
		<path fill="#FFB819" d="M44.225,88.088c-0.221,0-0.444-0.06-0.645-0.185l-14.876-9.267l-14.876,9.267
			c-0.573,0.357-1.327,0.182-1.683-0.391c-0.357-0.573-0.182-1.327,0.391-1.684l15.522-9.669c0.396-0.246,0.897-0.246,1.292,0
			l15.522,9.669c0.573,0.357,0.748,1.111,0.391,1.684C45.032,87.883,44.633,88.088,44.225,88.088z"/>
		<g>
			<path fill="#218649" d="M44.531,101.866c0-2.506-2.032-4.538-4.538-4.538s-4.538,2.032-4.538,4.538H44.531z"/>
			<path fill="#218649" d="M12.875,101.866c0-2.506,2.032-4.538,4.538-4.538s4.538,2.032,4.538,4.538H12.875z"/>
		</g>
	</g>
	<g>
		<circle fill="#324A5E" cx="37.363" cy="80.117" r="6.869"/>
		<path fill="#2B3B4E" d="M44.189,80.89l-3.901-3.901l-2.906,0.579l-3.109,0.12l0.948,0.948l-1.003,0.52l1.482,1.482l-0.334,0.334
			l2.498,3.362l2.13,2.13C42.255,85.526,43.906,83.415,44.189,80.89z"/>
		<path fill="#FFD15D" d="M39.942,78.371h-1.101c-0.049-0.198-0.127-0.385-0.23-0.555h1.331c0.268,0,0.486-0.217,0.486-0.486
			s-0.217-0.486-0.486-0.486H34.6c-0.268,0-0.486,0.217-0.486,0.486s0.217,0.486,0.486,0.486h2.29c0.399,0,0.745,0.225,0.92,0.555
			H34.6c-0.268,0-0.486,0.217-0.486,0.486s0.217,0.486,0.486,0.486h3.21c-0.175,0.33-0.522,0.555-0.92,0.555H34.6
			c-0.196,0-0.374,0.118-0.449,0.3c-0.075,0.182-0.034,0.39,0.105,0.529l3.816,3.816c0.095,0.095,0.219,0.142,0.343,0.142
			c0.124,0,0.249-0.047,0.343-0.142c0.19-0.19,0.19-0.497,0-0.687l-2.987-2.987h1.117c0.942,0,1.735-0.651,1.953-1.526h1.1
			c0.268,0,0.486-0.217,0.486-0.486C40.428,78.588,40.21,78.371,39.942,78.371z"/>
		<g>
			<path fill="#F9B54C" d="M38.072,84.542c0.095,0.095,0.219,0.142,0.343,0.142c0.124,0,0.249-0.047,0.343-0.142
				c0.19-0.19,0.19-0.497,0-0.687l-1.874-1.874v1.374L38.072,84.542z"/>
			<path fill="#F9B54C" d="M39.942,78.371h-1.101c-0.049-0.198-0.127-0.385-0.23-0.555h1.331c0.268,0,0.486-0.217,0.486-0.486
				s-0.217-0.486-0.486-0.486h-3.057v0.971h0.004c0.399,0,0.745,0.225,0.92,0.555h-0.924v0.971h0.924
				c-0.175,0.33-0.522,0.555-0.92,0.555h-0.004v0.971h0.004c0.942,0,1.735-0.651,1.953-1.526h1.1c0.268,0,0.486-0.217,0.486-0.486
				S40.21,78.371,39.942,78.371z"/>
		</g>
	</g>
</g>
<g opacity="0.8">
	<g>
		<rect x="73.015" y="76.039" fill="#324A5E" width="27.928" height="27.928"/>
		<rect x="86.979" y="76.039" fill="#2B3B4E" width="13.964" height="27.928"/>
		<rect x="75.131" y="83.021" fill="#E6F3FF" width="23.697" height="18.601"/>
		<rect x="86.979" y="83.021" fill="#CFDBE6" width="11.848" height="18.601"/>
		<g>
			<rect x="77.246" y="86.433" fill="#31BAFD" width="3.103" height="2.539"/>
			<rect x="82.63" y="86.433" fill="#31BAFD" width="3.103" height="2.539"/>
		</g>
		<g>
			<rect x="88.012" y="86.433" fill="#2B9ED8" width="3.103" height="2.539"/>
			<rect x="93.397" y="86.433" fill="#2B9ED8" width="3.103" height="2.539"/>
		</g>
		<g>
			<rect x="77.246" y="91.141" fill="#31BAFD" width="3.103" height="2.539"/>
			<rect x="82.63" y="91.141" fill="#31BAFD" width="3.103" height="2.539"/>
		</g>
		<g>
			<rect x="88.012" y="91.141" fill="#2B9ED8" width="3.103" height="2.539"/>
			<rect x="93.397" y="91.141" fill="#2B9ED8" width="3.103" height="2.539"/>
		</g>
		<g>
			<rect x="77.246" y="95.689" fill="#31BAFD" width="3.103" height="2.539"/>
			<rect x="82.63" y="95.689" fill="#31BAFD" width="3.103" height="2.539"/>
		</g>
		<g>
			<rect x="88.012" y="95.689" fill="#2B9ED8" width="3.103" height="2.539"/>
			<rect x="93.397" y="95.689" fill="#2B9ED8" width="3.103" height="2.539"/>
		</g>
		<g>
			<rect x="75.236" y="73.606" fill="#FFD15D" width="2.539" height="4.443"/>
			<rect x="82.218" y="73.606" fill="#FFD15D" width="2.539" height="4.443"/>
		</g>
		<g>
			<rect x="89.2" y="73.606" fill="#F9B54C" width="2.539" height="4.443"/>
			<rect x="96.182" y="73.606" fill="#F9B54C" width="2.539" height="4.443"/>
		</g>
	</g>
	<g>
		<polygon fill="#006C70" points="82.815,87.634 74.628,87.634 75.421,86.841 78.721,83.54 82.022,86.841 		"/>
		<polygon fill="#00AD68" points="82.815,87.634 74.628,87.634 75.421,86.841 82.022,86.841 		"/>
		<path fill="#FF6F52" d="M86.679,97.211v3.067c0,0.743-0.602,1.345-1.345,1.345H72.793c-1.121,0-2.03-0.909-2.03-2.03V89.576
			c0-1.121,0.909-2.03,2.03-2.03h12.541c0.743,0,1.345,0.602,1.345,1.345v3.067"/>
		<g>
			<path fill="#E25749" d="M72.262,99.593V89.576c0-1.121,0.909-2.03,2.03-2.03h-1.498c-1.121,0-2.03,0.909-2.03,2.03v10.017
				c0,1.121,0.909,2.03,2.03,2.03h1.498C73.171,101.623,72.262,100.714,72.262,99.593z"/>
			<path fill="#E25749" d="M82.113,97.211h4.701c0.384,0,0.696-0.312,0.696-0.696v-3.861c0-0.384-0.312-0.696-0.696-0.696h-4.701
				c-0.384,0-0.696,0.312-0.696,0.696v3.861C81.417,96.899,81.729,97.211,82.113,97.211z"/>
		</g>
		<circle fill="#FCD577" cx="83.757" cy="94.584" r="0.902"/>
	</g>
</g>
<g opacity="0.8">
	<g>
		<path fill="#4EBFED" d="M31.989,136.182l-7.378-2.009l-1.813,1.508c-0.569-0.854-0.87-1.847-0.87-2.873v-1.653
			c0-0.925,0.752-1.677,1.677-1.677c0.925,0,1.677,0.752,1.677,1.677v0.671c0,0.184,0.151,0.335,0.335,0.335
			s0.335-0.151,0.335-0.335v-0.671c0-0.925,0.752-1.677,1.677-1.677s1.677,0.752,1.677,1.677v0.671c0,0.184,0.151,0.335,0.335,0.335
			s0.335-0.151,0.335-0.335v-0.671c0-0.925,0.752-1.677,1.677-1.677s1.677,0.752,1.677,1.677v1.653c0,1.025-0.3,2.019-0.87,2.873
			L31.989,136.182z"/>
		<path fill="#333333" d="M21.417,146h-1.342H18v-11h-5v14h5v-2h1.758l0.981,0.446l0.003,0.187L21.1,148H22v-2H21.417z M17,147h-3
			v-10h3V147z"/>
		<rect x="14" y="137" fill="#FF7058" width="3" height="10"/>
		<path fill="#4EBFED" d="M36.684,152.281c0,2.396-0.952,4.629-2.68,6.289c-1.639,1.574-3.77,2.43-6.034,2.43
			c-0.121,0-0.242-0.002-0.364-0.008c-4.527-0.182-8.277-4.019-8.358-8.552c-0.033-1.82,0.49-3.563,1.492-5.036
			c0.279-0.41,0.594-0.798,0.945-1.162c0.008-0.009,0.017-0.018,0.026-0.027c1.309-1.346,2.082-2.995,2.211-4.691
			c0.013-0.167,0.019-0.335,0.019-0.504l3.536-2.153L29,140.209V147h4.33l0.785-0.851c0.119,0.119,0.234,0.218,0.345,0.342
			C35.899,148.09,36.684,150.113,36.684,152.281z"/>
		<path fill="#333333" d="M34.149,138.867c0.322-0.357,0.523-1.081,0.523-1.598c0-1.11-0.903-2.269-2.012-2.269h-2.497l-0.467-0.327
			l-5.241-1.372l-1.992,1.734l-0.004,0.1L20.345,137H17v1h3.83l3.938-3.183l4.148,1.234l1.411,1.787
			c0.187,0.233,0.269,0.539,0.231,0.836c-0.002,0.019-0.005,0.042-0.008,0.06c-0.003,0.017-0.006,0.036-0.01,0.054
			c-0.001,0.006-0.003,0.012-0.004,0.018c-0.005,0.024-0.012,0.048-0.02,0.071c-0.006,0.02,0.009,0.041,0.002,0.06
			c-0.008,0.021-0.004,0.043-0.004,0.063v0.001c-0.107,0.021-0.042,0.041-0.052,0.06c-0.01,0.02-0.032,0.038-0.044,0.057
			c0,0.002-0.007,0.003-0.008,0.004c-0.011,0.018-0.026,0.036-0.039,0.055s-0.028,0.036-0.042,0.054
			c-0.023,0.029-0.048,0.056-0.074,0.082c-0.015,0.015-0.029,0.029-0.044,0.042c-0.016,0.014-0.032,0.028-0.048,0.041
			c-0.011,0.009-0.022,0.017-0.033,0.025c-0.432,0.325-1.047,0.281-1.431-0.102l-1.354-1.353l-3.822,3.058l0.399,0.499l0.439,0.549
			l2.885-2.308l0.504,0.505c0.074,0.074,0.156,0.134,0.238,0.196c0.049,0.49,0.227,0.778,0.502,1.081
			c-0.322,0.357-0.523,0.825-0.523,1.342s0.202,0.985,0.523,1.342c-0.322,0.357-0.523,0.823-0.523,1.34
			c0,0.515,0.194,0.986,0.514,1.342c0.049,0.055,0.101,0.316,0.157,0.364c0.356,0.32,0.826,0.723,1.342,0.723h2.683
			c0.787,0,1.34-0.895,2.34-1.556v0.011c0-0.27-0.059-0.567-0.059-0.889c0-0.517-0.336-0.981-0.658-1.338
			c0.322-0.357,0.456-0.821,0.456-1.34c0-0.518-0.235-0.984-0.557-1.341c0.322-0.357,0.507-0.823,0.507-1.341
			C34.689,139.691,34.47,139.224,34.149,138.867z M32.66,146h-2.683c-0.37,0-0.671-0.13-0.671-0.5s0.301-0.5,0.671-0.5h2.683
			c0.37,0,0.671,0.13,0.671,0.5S33.029,146,32.66,146z M32.66,137c0.37,0,0.671,0.13,0.671,0.499c0,0.37-0.301,0.501-0.671,0.501
			h-0.787c-0.062,0-0.224-0.654-0.498-0.998L31.237,137H32.66z M30.934,139.791c0.338-0.254,0.588-0.791,0.754-0.791h0.972
			c0.37,0,0.671,0.131,0.671,0.501c0,0.369-0.301,0.499-0.671,0.499h-2.485C30.443,140,30.701,139.966,30.934,139.791z M32.66,142
			c0.37,0,0.671,0.13,0.671,0.5s-0.301,0.5-0.671,0.5h-2.683c-0.37,0-0.671-0.13-0.671-0.5s0.301-0.5,0.671-0.5H32.66z"/>
		<path fill="#F6C358" d="M33.33,145.5c0,0.37-0.301,0.5-0.671,0.5h-2.683c-0.37,0-0.671-0.13-0.671-0.5s0.301-0.5,0.671-0.5h2.683
			C33.029,145,33.33,145.13,33.33,145.5z"/>
		<path fill="#F6C358" d="M33.33,142.5c0,0.37-0.301,0.5-0.671,0.5h-2.683c-0.37,0-0.671-0.13-0.671-0.5s0.301-0.5,0.671-0.5h2.683
			C33.029,142,33.33,142.13,33.33,142.5z"/>
		<path fill="#F6C358" d="M33.33,139.501c0,0.369-0.301,0.499-0.671,0.499h-2.485c0.268,0,0.526-0.034,0.759-0.209
			c0.338-0.254,0.588-0.791,0.754-0.791h0.972C33.029,139,33.33,139.131,33.33,139.501z"/>
		<path fill="#F6C358" d="M33.33,137.499c0,0.37-0.301,0.501-0.671,0.501h-0.787c-0.062,0-0.224-0.654-0.498-0.998L31.237,137h1.423
			C33.029,137,33.33,137.13,33.33,137.499z"/>
		<path fill="#F6C358" d="M30.559,138.685c-0.037,0.296-0.19,0.559-0.43,0.738c-0.432,0.325-1.047,0.281-1.431-0.102l-1.354-1.353
			l-3.822,3.058l0.399,0.499c-0.128,1.696-0.902,3.223-2.211,4.57c-0.009,0.009-0.018-0.094-0.026-0.094h-0.268h-1.342H18v-8h2.83
			l3.938-3.183l4.148,1.234l1.411,1.787C30.514,138.072,30.596,138.388,30.559,138.685z"/>
		<path fill="#FFFFFF" d="M31.276,150.464h-1.365c-0.061-0.245-0.157-0.477-0.285-0.688h1.65c0.333,0,0.602-0.27,0.602-0.602
			s-0.27-0.602-0.602-0.602h-6.623c-0.333,0-0.602,0.27-0.602,0.602s0.27,0.602,0.602,0.602h2.838c0.494,0,0.924,0.279,1.141,0.688
			h-3.979c-0.333,0-0.602,0.27-0.602,0.602s0.27,0.602,0.602,0.602h3.979c-0.217,0.409-0.647,0.688-1.141,0.688h-2.838
			c-0.244,0-0.463,0.147-0.556,0.372c-0.093,0.225-0.042,0.484,0.131,0.656l4.731,4.731c0.118,0.118,0.272,0.176,0.426,0.176
			c0.154,0,0.308-0.059,0.426-0.176c0.235-0.235,0.235-0.616,0-0.852l-3.703-3.703h1.385c1.168,0,2.15-0.807,2.421-1.892h1.364
			c0.333,0,0.602-0.27,0.602-0.602C31.878,150.733,31.609,150.464,31.276,150.464z"/>
		<path fill="#E6E6E6" d="M39.404,147.832c0.586-0.391,0.939-1.05,0.939-1.755v-3.352h-8.962v3.352c0,0.705,0.353,1.363,0.939,1.755
			l2.784,2.044c0.101,0.074,0.161,0.192,0.161,0.317l0,0c0,0.125-0.06,0.243-0.16,0.317l-2.784,2.044
			c-0.587,0.391-0.939,1.05-0.939,1.755v3.352h8.962v-3.352c0-0.705-0.353-1.363-0.939-1.755l-2.784-2.044
			c-0.101-0.074-0.161-0.192-0.161-0.317l0,0c0-0.125,0.06-0.243,0.16-0.317L39.404,147.832z"/>
		<rect x="29.887" y="157.662" fill="#9E6C53" width="11.949" height="1.195"/>
		<rect x="29.887" y="141.53" fill="#9E6C53" width="11.949" height="1.195"/>
		<g>
			<path fill="#8A5336" d="M43.031,158.558h-1.195H28.692c-0.165,0-0.299,0.134-0.299,0.299c0,0.165,0.134,0.299,0.299,0.299h13.144
				h1.195c0.165,0,0.299-0.134,0.299-0.299C43.33,158.691,43.196,158.558,43.031,158.558z"/>
			<path fill="#8A5336" d="M28.692,141.829h13.144h1.195c0.165,0,0.299-0.134,0.299-0.299c0-0.165-0.134-0.299-0.299-0.299h-1.195
				H28.692c-0.165,0-0.299,0.134-0.299,0.299C28.393,141.695,28.527,141.829,28.692,141.829z"/>
		</g>
		<path fill="#FF4F19" d="M38.906,147.086c0.338-0.226,0.54-0.603,0.54-1.009l0,0c0-0.39-0.266-0.73-0.644-0.825l-4.497-1.124
			c-1.03-0.258-2.029,0.522-2.029,1.584v0.365c0,0.406,0.202,0.783,0.54,1.009l2.746,2.015v4.743c0,1.084-1.124,1.803-2.108,1.348
			l0,0c-0.53-0.245-1.172,0.118-1.177,0.702c0,0.004,0,0.008,0,0.012v1.755h7.17v-3.353c0-0.004,0-0.008,0-0.012
			c-0.006-0.577-0.564-0.992-1.132-0.894l-0.612,0.107c-0.805,0.14-1.542-0.479-1.542-1.296v-3.112L38.906,147.086z"/>
	</g>
</g>
</svg>
