<?xml version="1.0" encoding="utf-8"?>
<!-- Generator: Adobe Illustrator 17.0.0, SVG Export Plug-In . SVG Version: 6.00 Build 0)  -->
<!DOCTYPE svg PUBLIC "-//W3C//DTD SVG 1.1//EN" "http://www.w3.org/Graphics/SVG/1.1/DTD/svg11.dtd">
<svg version="1.1" id="Layer_1" xmlns="http://www.w3.org/2000/svg" xmlns:xlink="http://www.w3.org/1999/xlink" x="0px" y="0px"
	 width="204px" height="89px" viewBox="0 0 204 89" enable-background="new 0 0 204 89" xml:space="preserve">
<g>
	<g>
		<g>
			<path fill="#FFFFFF" d="M64.46,38.856h-3.352V22.451c0-2.804,0.755-4.993,2.265-6.561c1.509-1.568,3.513-2.353,6.009-2.353
				c2.662,0,4.726,0.761,6.188,2.282c1.462,1.522,2.193,3.459,2.193,5.813c0,1.474-0.267,2.758-0.803,3.852
				s-1.255,1.938-2.157,2.532c-0.904,0.594-1.867,1.034-2.889,1.319c-1.023,0.285-2.093,0.428-3.209,0.428H66.03v-3.14h3.067
				c1.593,0,2.847-0.481,3.762-1.444c0.915-0.962,1.374-2.169,1.374-3.619c0-1.427-0.422-2.596-1.266-3.513
				c-0.844-0.915-2.051-1.374-3.619-1.374c-1.522,0-2.717,0.516-3.584,1.551c-0.868,1.034-1.301,2.395-1.301,4.084v16.547H64.46z"/>
			<path fill="#FFFFFF" d="M88.133,28.799v3.21c-0.904-0.69-2.009-1.034-3.317-1.034c-1.118,0-1.985,0.22-2.603,0.66
				c-0.619,0.441-0.927,1.065-0.927,1.872c0,1.568,1.165,2.353,3.495,2.353h4.708v-6.811c0-2.877-1.403-4.316-4.208-4.316h-5.706
				v-2.996h5.884c2.306,0,4.078,0.571,5.313,1.712c1.236,1.142,1.855,2.783,1.855,4.922v10.484h-7.953
				c-2.022,0-3.626-0.451-4.814-1.355c-1.189-0.904-1.782-2.223-1.782-3.959c0-1.736,0.629-3.055,1.89-3.959
				c1.26-0.903,2.841-1.355,4.743-1.355C85.779,28.229,86.92,28.418,88.133,28.799z"/>
			<path fill="#FFFFFF" d="M94.629,21.738h3.138v8.951c0,1.925,0.298,3.27,0.891,4.029c0.594,0.762,1.687,1.142,3.281,1.142h3.745
				V21.738h3.138v16.261c0,2.971-0.779,5.212-2.336,6.722c-1.557,1.509-4,2.265-7.329,2.265h-2.567V43.99h2.247
				c4.351,0,6.634-1.712,6.847-5.136h-2.996c-3.115,0-5.237-0.547-6.366-1.641s-1.694-3.317-1.694-6.669v-8.807L94.629,21.738
				L94.629,21.738z"/>
			<path fill="#FFFFFF" d="M112.103,21.738h15.727c1.687,0,3.031,0.321,4.029,0.962c1.022,0.642,1.694,1.474,2.015,2.496
				c0.32,1.023,0.481,2.247,0.481,3.674v9.986h-3.138V28.87c0-1.855-0.558-3.079-1.676-3.674c-0.571-0.308-1.724-0.463-3.459-0.463
				h-1.462v14.122h-3.138V24.733h-6.241v14.122h-3.138V21.738H112.103z"/>
			<path fill="#FFFFFF" d="M147.16,28.799v3.21c-0.904-0.69-2.009-1.034-3.317-1.034c-1.118,0-1.986,0.22-2.604,0.66
				c-0.619,0.441-0.928,1.065-0.928,1.872c0,1.568,1.165,2.353,3.495,2.353h4.708v-6.811c0-2.877-1.403-4.316-4.208-4.316h-5.706
				v-2.996h5.884c2.306,0,4.078,0.571,5.313,1.712c1.236,1.142,1.855,2.783,1.855,4.922v10.484H143.7
				c-2.02,0-3.626-0.451-4.814-1.355c-1.19-0.904-1.784-2.223-1.784-3.959c0-1.736,0.63-3.055,1.89-3.959
				c1.26-0.903,2.841-1.355,4.743-1.355C144.806,28.229,145.947,28.418,147.16,28.799z"/>
			<path fill="#FFFFFF" d="M152.794,24.734l6.384-6.384v3.388h4.814v2.996h-4.814v7.346c0,0.833,0.137,1.522,0.41,2.069
				c0.273,0.547,0.671,0.933,1.195,1.16c0.523,0.227,1.017,0.375,1.48,0.446c0.463,0.071,1.039,0.106,1.729,0.106v2.996
				c-2.734,0-4.755-0.523-6.063-1.568c-1.308-1.046-1.961-2.781-1.961-5.207v-7.346L152.794,24.734L152.794,24.734L152.794,24.734z"
				/>
			<path fill="#FFFFFF" d="M165.847,38.856v-9.736c0-2.733,0.511-4.624,1.534-5.67c0.499-0.523,1.105-0.915,1.819-1.176
				c0.713-0.261,1.337-0.417,1.872-0.463c0.535-0.047,1.266-0.071,2.194-0.071h3.138v2.996h-3.78c-0.476,0-0.844,0.013-1.106,0.035
				c-0.262,0.024-0.571,0.106-0.927,0.249c-0.357,0.142-0.666,0.368-0.928,0.677c-0.452,0.571-0.677,1.712-0.677,3.423v9.736
				H165.847z"/>
			<path fill="#FFFFFF" d="M184.203,38.856h-3.138V24.734h-2.924l1.427-2.996h4.636L184.203,38.856L184.203,38.856z M180.922,18.171
				c-0.309-0.404-0.463-0.843-0.463-1.319s0.154-0.909,0.463-1.301s0.785-0.589,1.427-0.589s1.117,0.196,1.427,0.589
				c0.309,0.392,0.463,0.827,0.463,1.301c0,0.476-0.154,0.909-0.463,1.301c-0.31,0.392-0.785,0.589-1.427,0.589
				C181.707,18.742,181.231,18.552,180.922,18.171z"/>
			<path fill="#FFFFFF" d="M197.862,21.738H201v0.499c0,3.209-1.284,5.778-3.852,7.703c1.236,0.904,2.188,2.028,2.853,3.37
				c0.665,1.343,0.999,2.764,0.999,4.261v1.284h-3.138v-1.284c0-1.33-0.32-2.532-0.963-3.602c-0.642-1.07-1.593-1.89-2.852-2.46
				c-1.236,0.594-2.181,1.451-2.834,2.567c-0.655,1.117-0.981,2.353-0.981,3.709v1.07h-3.138v-1.07c0-3.328,1.284-5.944,3.851-7.846
				c-2.567-1.925-3.851-4.565-3.851-7.917v-0.285h3.138v0.285c0,1.355,0.327,2.591,0.981,3.709c0.654,1.118,1.599,1.985,2.834,2.603
				c2.544-1.189,3.816-3.222,3.816-6.098L197.862,21.738L197.862,21.738z"/>
		</g>
		<g>
			<path fill="#FFFFFF" d="M26.089,4.23l0.019,10.428c0,0,10.911,5.456,11.808,5.898c0.933,0.451,0.933,0.651,0.933,1.491
				c0,0.507,0,11.715,0,11.715l10.71,5.354V15.934L26.089,4.23z"/>
			<path fill="#FFFFFF" d="M23.943,4.23l-0.019,10.428c0,0-10.911,5.456-11.808,5.898c-0.933,0.451-0.933,0.651-0.933,1.491
				c0,0.507,0,11.715,0,11.715l-10.71,5.353v-23.18L23.943,4.23z"/>
			<polygon fill="#FFFFFF" points="25.016,29.273 13.347,23.355 13.347,33.77 25.016,39.135 36.755,33.77 36.755,23.355 			"/>
			<polygon fill="#FFFFFF" points="25.056,16.455 14.633,21.668 25.056,26.879 35.474,21.668 			"/>
		</g>
	</g>
	<g>
		<g>
			<path fill="#0071BC" d="M48.505,80.397h-2.517V68.083c0-2.105,0.567-3.748,1.7-4.925c1.133-1.177,2.637-1.767,4.511-1.767
				c1.999,0,3.547,0.571,4.645,1.713c1.097,1.142,1.646,2.597,1.646,4.364c0,1.107-0.2,2.07-0.603,2.892s-0.942,1.455-1.619,1.901
				c-0.679,0.446-1.402,0.776-2.169,0.99c-0.768,0.214-1.571,0.321-2.409,0.321h-2.008v-2.357h2.302
				c1.196,0,2.137-0.361,2.824-1.084c0.687-0.722,1.031-1.628,1.031-2.717c0-1.071-0.317-1.949-0.95-2.637
				c-0.634-0.687-1.539-1.031-2.717-1.031c-1.142,0-2.039,0.388-2.69,1.164c-0.652,0.776-0.977,1.798-0.977,3.066v12.421H48.505z"/>
			<path fill="#0071BC" d="M66.275,72.848v2.41c-0.679-0.518-1.508-0.776-2.49-0.776c-0.839,0-1.49,0.165-1.954,0.495
				c-0.464,0.331-0.696,0.799-0.696,1.405c0,1.177,0.874,1.767,2.624,1.767h3.534v-5.113c0-2.159-1.053-3.24-3.159-3.24h-4.283
				v-2.249h4.417c1.731,0,3.061,0.429,3.988,1.285c0.928,0.857,1.392,2.089,1.392,3.695v7.87h-5.97
				c-1.517,0-2.722-0.338-3.614-1.017c-0.892-0.679-1.338-1.669-1.338-2.972s0.472-2.293,1.419-2.972
				c0.946-0.678,2.132-1.017,3.56-1.017C64.508,72.42,65.365,72.562,66.275,72.848z"/>
			<path fill="#0071BC" d="M71.152,67.547h2.356v6.719c0,1.445,0.223,2.455,0.669,3.025c0.446,0.572,1.267,0.857,2.463,0.857h2.811
				V67.547h2.356v12.207c0,2.23-0.585,3.913-1.753,5.046c-1.169,1.133-3.003,1.7-5.501,1.7h-1.927v-2.249h1.687
				c3.266,0,4.98-1.285,5.14-3.855h-2.249c-2.338,0-3.931-0.411-4.779-1.232c-0.847-0.821-1.271-2.49-1.271-5.006L71.152,67.547
				L71.152,67.547L71.152,67.547z"/>
			<path fill="#0071BC" d="M84.269,67.547h11.805c1.267,0,2.275,0.241,3.025,0.722c0.767,0.482,1.271,1.107,1.513,1.874
				c0.241,0.768,0.361,1.687,0.361,2.758v7.496h-2.356v-7.496c0-1.392-0.419-2.311-1.258-2.758
				c-0.429-0.231-1.294-0.348-2.597-0.348h-1.097v10.601h-2.356V69.796h-4.685v10.601h-2.356L84.269,67.547L84.269,67.547z"/>
			<path fill="#0071BC" d="M110.585,72.848v2.41c-0.679-0.518-1.508-0.776-2.49-0.776c-0.839,0-1.491,0.165-1.955,0.495
				c-0.464,0.331-0.697,0.799-0.697,1.405c0,1.177,0.874,1.767,2.624,1.767h3.534v-5.113c0-2.159-1.053-3.24-3.159-3.24h-4.283
				v-2.249h4.417c1.731,0,3.061,0.429,3.988,1.285c0.928,0.857,1.392,2.089,1.392,3.695v7.87h-5.97
				c-1.517,0-2.722-0.338-3.614-1.017c-0.893-0.679-1.339-1.669-1.339-2.972s0.473-2.293,1.419-2.972
				c0.946-0.678,2.132-1.017,3.56-1.017C108.817,72.42,109.674,72.562,110.585,72.848z"/>
			<path fill="#0071BC" d="M114.814,69.796l4.792-4.792v2.543h3.614v2.249h-3.614v5.515c0,0.625,0.103,1.142,0.308,1.553
				c0.205,0.411,0.504,0.7,0.897,0.87c0.393,0.17,0.763,0.281,1.111,0.335c0.348,0.053,0.78,0.08,1.298,0.08v2.249
				c-2.052,0-3.57-0.392-4.551-1.177c-0.982-0.785-1.472-2.088-1.472-3.908v-5.515L114.814,69.796L114.814,69.796L114.814,69.796z"
				/>
			<path fill="#0071BC" d="M124.612,80.397v-7.309c0-2.052,0.384-3.471,1.152-4.256c0.374-0.392,0.829-0.687,1.365-0.883
				c0.535-0.196,1.004-0.313,1.405-0.348c0.402-0.035,0.95-0.053,1.647-0.053h2.356v2.249H129.7c-0.357,0-0.634,0.009-0.83,0.026
				c-0.197,0.018-0.429,0.08-0.696,0.187c-0.268,0.106-0.5,0.276-0.697,0.509c-0.339,0.429-0.509,1.285-0.509,2.57v7.309H124.612z"
				/>
			<path fill="#0071BC" d="M138.391,80.397h-2.356V69.796h-2.195l1.071-2.249h3.48L138.391,80.397L138.391,80.397z M135.928,64.87
				c-0.232-0.303-0.348-0.633-0.348-0.99c0-0.357,0.116-0.682,0.348-0.977c0.232-0.294,0.589-0.442,1.071-0.442
				s0.838,0.147,1.071,0.442c0.232,0.294,0.348,0.62,0.348,0.977c0,0.357-0.116,0.682-0.348,0.977
				c-0.232,0.294-0.589,0.442-1.071,0.442S136.16,65.156,135.928,64.87z"/>
			<path fill="#0071BC" d="M148.644,67.547H151v0.374c0,2.409-0.964,4.337-2.892,5.783c0.928,0.679,1.642,1.522,2.142,2.53
				c0.499,1.008,0.75,2.075,0.75,3.199v0.964h-2.356v-0.964c0-0.999-0.241-1.901-0.723-2.704c-0.482-0.803-1.196-1.419-2.141-1.846
				c-0.928,0.446-1.638,1.089-2.128,1.927c-0.491,0.839-0.736,1.767-0.736,2.784v0.803h-2.356v-0.803
				c0-2.498,0.964-4.462,2.891-5.89c-1.927-1.445-2.891-3.427-2.891-5.943v-0.214h2.356v0.214c0,1.017,0.245,1.945,0.736,2.784
				c0.491,0.839,1.2,1.49,2.128,1.954c1.909-0.892,2.864-2.418,2.864-4.578L148.644,67.547L148.644,67.547z"/>
		</g>
		<g>
			<path fill="#0071BC" d="M19.702,54.405l0.014,7.828c0,0,8.19,4.095,8.864,4.427c0.7,0.338,0.7,0.488,0.7,1.119
				c0,0.381,0,8.794,0,8.794l8.039,4.019V63.191L19.702,54.405z"/>
			<path fill="#0071BC" d="M18.091,54.405l-0.014,7.828c0,0-8.19,4.095-8.864,4.427c-0.7,0.338-0.7,0.488-0.7,1.119
				c0,0.381,0,8.794,0,8.794l-8.039,4.018v-17.4L18.091,54.405z"/>
			<polygon fill="#0071BC" points="18.897,73.204 10.136,68.761 10.136,76.58 18.897,80.607 27.708,76.58 27.708,68.761 			"/>
			<polygon fill="#0071BC" points="18.926,63.582 11.102,67.495 18.926,71.406 26.747,67.495 			"/>
		</g>
	</g>
</g>
</svg>
