<?xml version="1.0" encoding="utf-8"?>
<!-- Generator: Adobe Illustrator 17.0.0, SVG Export Plug-In . SVG Version: 6.00 Build 0)  -->
<!DOCTYPE svg PUBLIC "-//W3C//DTD SVG 1.1//EN" "http://www.w3.org/Graphics/SVG/1.1/DTD/svg11.dtd">
<svg version="1.1" id="Layer_1" xmlns="http://www.w3.org/2000/svg" xmlns:xlink="http://www.w3.org/1999/xlink" x="0px" y="0px"
	 width="204px" height="89px" viewBox="0 0 204 89" enable-background="new 0 0 204 89" xml:space="preserve">
<g>
	<g>
		<g>
			<g>
				<g>
					<g>
						<path fill="#FFFFFF" d="M51.116,16.038c0.413,0.206,0.752,0.753,0.752,1.215v22.119c0,0.462-0.338,0.671-0.751,0.464
							l-9.493-4.746c-0.413-0.207-0.751-0.754-0.751-1.216c0,0,0-10.667,0-11.187c0-0.863,0-1.068-0.958-1.53
							c-0.921-0.454-11.371-5.68-11.371-5.68c-0.413-0.207-0.767-0.753-0.768-1.215l-0.002-9.027
							c-0.001-0.462,0.337-0.671,0.75-0.465L51.116,16.038z"/>
					</g>
				</g>
				<g>
					<g>
						<path fill="#FFFFFF" d="M24.818,4.77c0.413-0.206,0.751,0.003,0.75,0.465l-0.016,9.026c-0.001,0.462-0.34,1.009-0.753,1.216
							c0,0-10.452,5.227-11.372,5.68c-0.957,0.463-0.957,0.667-0.957,1.53c0,0.52,0,11.187,0,11.187
							c0,0.462-0.338,1.009-0.751,1.216l-9.494,4.746c-0.413,0.207-0.751-0.002-0.751-0.464V17.253c0-0.462,0.338-1.009,0.752-1.215
							L24.818,4.77z"/>
					</g>
				</g>
				<g>
					<g>
						<path fill="#FFFFFF" d="M38.35,24.22c0.206-0.104,0.375,0,0.375,0.231v9.852c0,0.231-0.172,0.499-0.382,0.594l-11.289,5.159
							c-0.21,0.096-0.554,0.096-0.764-0.001l-11.218-5.157c-0.21-0.097-0.382-0.364-0.382-0.595v-9.852
							c0-0.231,0.169-0.334,0.375-0.23l11.232,5.696c0.206,0.104,0.543,0.105,0.75,0.001L38.35,24.22z"/>
					</g>
				</g>
				<g>
					<g>
						<path fill="#FFFFFF" d="M37.033,22.111c0.207,0.103,0.207,0.272,0,0.376l-9.945,4.974c-0.207,0.103-0.545,0.103-0.751,0
							l-9.949-4.974c-0.207-0.103-0.207-0.272,0-0.376l9.949-4.976c0.207-0.103,0.545-0.103,0.751,0L37.033,22.111z"/>
					</g>
				</g>
			</g>
		</g>
		<g>
			<g>
				<g>
					<g>
						<path fill="#FFFFFF" d="M194.45,18.596c0-0.175-0.143-0.318-0.318-0.318h-0.703c-0.175,0-0.318-0.143-0.318-0.318V17.68
							c0-0.175,0.143-0.318,0.318-0.318h3.077c0.175,0,0.318,0.143,0.318,0.318v0.279c0,0.175-0.143,0.318-0.318,0.318h-0.703
							c-0.175,0-0.318,0.143-0.318,0.318v3.143c0,0.175-0.143,0.318-0.318,0.318h-0.398c-0.175,0-0.318-0.143-0.318-0.318V18.596z"
							/>
					</g>
					<g>
						<path fill="#FFFFFF" d="M197.348,17.68c0-0.175,0.143-0.318,0.318-0.318h0.929c0.175,0,0.366,0.135,0.424,0.3l0.869,2.464
							c0.058,0.165,0.109,0.3,0.112,0.3s0.055-0.135,0.113-0.3l0.875-2.464c0.059-0.165,0.25-0.3,0.425-0.3h0.922
							c0.175,0,0.318,0.143,0.318,0.318v4.059c0,0.175-0.143,0.318-0.318,0.318h-0.398c-0.175,0-0.318-0.143-0.318-0.318v-2.964
							c0-0.175-0.003-0.318-0.007-0.318s-0.053,0.136-0.11,0.301l-1.027,2.999c-0.057,0.166-0.246,0.301-0.421,0.301h-0.153
							c-0.175,0-0.363-0.136-0.418-0.302l-0.988-2.996c-0.055-0.166-0.103-0.302-0.106-0.302s-0.007,0.143-0.007,0.318v2.964
							c0,0.175-0.143,0.318-0.318,0.318h-0.398c-0.175,0-0.318-0.143-0.318-0.318V17.68z"/>
					</g>
				</g>
			</g>
			<g>
				<path fill="#FFFFFF" d="M62.773,38.088h-3.139V22.725c0-2.627,0.707-4.676,2.121-6.145c1.414-1.469,3.29-2.204,5.627-2.204
					c2.493,0,4.425,0.713,5.794,2.137c1.369,1.425,2.054,3.24,2.054,5.444c0,1.381-0.25,2.583-0.751,3.607
					c-0.501,1.024-1.175,1.815-2.02,2.371c-0.846,0.557-1.748,0.968-2.705,1.236c-0.957,0.267-1.959,0.401-3.006,0.401h-2.505
					v-2.939h2.872c1.491,0,2.666-0.451,3.523-1.353c0.857-0.901,1.286-2.031,1.286-3.39c0-1.336-0.396-2.432-1.186-3.29
					c-0.791-0.857-1.92-1.286-3.39-1.286c-1.425,0-2.544,0.484-3.356,1.453c-0.813,0.969-1.219,2.243-1.219,3.824V38.088z"/>
				<path fill="#FFFFFF" d="M84.941,28.67v3.006c-0.846-0.646-1.882-0.969-3.106-0.969c-1.047,0-1.859,0.206-2.438,0.618
					c-0.579,0.412-0.868,0.997-0.868,1.753c0,1.469,1.091,2.204,3.273,2.204h4.408v-6.379c0-2.694-1.314-4.041-3.941-4.041h-5.344
					v-2.805h5.51c2.159,0,3.818,0.534,4.976,1.603c1.157,1.069,1.737,2.605,1.737,4.609v9.819h-7.448
					c-1.893,0-3.396-0.423-4.509-1.269c-1.114-0.846-1.67-2.082-1.67-3.707c0-1.625,0.59-2.861,1.77-3.707
					c1.18-0.846,2.66-1.269,4.442-1.269C82.737,28.136,83.806,28.314,84.941,28.67z"/>
				<path fill="#FFFFFF" d="M91.026,22.057h2.939v8.382c0,1.804,0.278,3.062,0.835,3.774c0.556,0.713,1.58,1.069,3.072,1.069h3.507
					V22.057h2.939v15.229c0,2.783-0.729,4.881-2.187,6.295c-1.458,1.413-3.746,2.121-6.863,2.121h-2.405v-2.805h2.104
					c4.075,0,6.212-1.603,6.412-4.809h-2.805c-2.917,0-4.904-0.512-5.961-1.536c-1.058-1.024-1.586-3.106-1.586-6.245V22.057z"/>
				<path fill="#FFFFFF" d="M107.39,22.057h14.728c1.58,0,2.839,0.3,3.774,0.901c0.957,0.601,1.586,1.381,1.887,2.338
					c0.3,0.958,0.451,2.104,0.451,3.44v9.351h-2.939v-9.351c0-1.736-0.523-2.883-1.57-3.44c-0.534-0.289-1.614-0.434-3.24-0.434
					h-1.369v13.225h-2.939V24.863h-5.844v13.225h-2.939V22.057z"/>
				<path fill="#FFFFFF" d="M140.219,28.67v3.006c-0.846-0.646-1.882-0.969-3.106-0.969c-1.047,0-1.86,0.206-2.438,0.618
					c-0.579,0.412-0.868,0.997-0.868,1.753c0,1.469,1.091,2.204,3.273,2.204h4.408v-6.379c0-2.694-1.314-4.041-3.941-4.041h-5.344
					v-2.805h5.511c2.159,0,3.818,0.534,4.976,1.603c1.158,1.069,1.737,2.605,1.737,4.609v9.819h-7.448
					c-1.893,0-3.396-0.423-4.508-1.269c-1.114-0.846-1.67-2.082-1.67-3.707c0-1.625,0.59-2.861,1.77-3.707
					c1.18-0.846,2.66-1.269,4.442-1.269C138.014,28.136,139.083,28.314,140.219,28.67z"/>
				<path fill="#FFFFFF" d="M145.495,24.863l5.978-5.978v3.173h4.508v2.805h-4.508v6.88c0,0.78,0.128,1.425,0.384,1.937
					c0.255,0.513,0.629,0.874,1.119,1.086c0.489,0.212,0.952,0.35,1.386,0.418c0.434,0.067,0.974,0.1,1.62,0.1v2.805
					c-2.561,0-4.453-0.49-5.677-1.469c-1.225-0.979-1.837-2.605-1.837-4.876v-6.88H145.495z"/>
				<path fill="#FFFFFF" d="M157.718,38.088V28.97c0-2.56,0.479-4.33,1.436-5.31c0.468-0.489,1.035-0.857,1.703-1.102
					c0.668-0.245,1.252-0.39,1.753-0.434c0.501-0.044,1.186-0.067,2.054-0.067h2.939v2.805h-3.54c-0.446,0-0.791,0.011-1.035,0.033
					c-0.245,0.022-0.534,0.1-0.868,0.234c-0.334,0.133-0.624,0.345-0.868,0.634c-0.423,0.535-0.635,1.603-0.635,3.206v9.117H157.718
					z"/>
				<path fill="#FFFFFF" d="M174.908,38.088h-2.939V24.863h-2.739l1.336-2.805h4.341V38.088z M171.836,18.717
					c-0.289-0.378-0.434-0.79-0.434-1.236c0-0.445,0.145-0.852,0.434-1.219c0.289-0.368,0.735-0.551,1.336-0.551
					c0.601,0,1.046,0.184,1.336,0.551c0.289,0.367,0.434,0.774,0.434,1.219c0,0.446-0.145,0.852-0.434,1.219
					c-0.29,0.368-0.735,0.551-1.336,0.551C172.57,19.252,172.125,19.074,171.836,18.717z"/>
				<path fill="#FFFFFF" d="M187.699,22.057h2.939v0.468c0,3.005-1.202,5.41-3.607,7.213c1.158,0.846,2.048,1.899,2.672,3.156
					c0.623,1.258,0.935,2.588,0.935,3.991v1.202h-2.939v-1.202c0-1.247-0.3-2.371-0.902-3.373c-0.601-1.002-1.492-1.77-2.672-2.304
					c-1.158,0.557-2.043,1.358-2.655,2.404c-0.613,1.047-0.918,2.204-0.918,3.473v1.002h-2.939v-1.002
					c0-3.117,1.202-5.566,3.607-7.347c-2.404-1.803-3.607-4.275-3.607-7.414v-0.267h2.939v0.267c0,1.269,0.306,2.427,0.918,3.473
					c0.612,1.046,1.497,1.859,2.655,2.438c2.382-1.113,3.573-3.017,3.573-5.711V22.057z"/>
			</g>
		</g>
	</g>
	<g>
		<g>
			<g>
				<g>
					<g>
						<path fill="#0071BC" d="M37.464,62.588c0.309,0.154,0.561,0.562,0.561,0.907v16.522c0,0.345-0.253,0.501-0.561,0.347
							l-7.091-3.545c-0.309-0.154-0.561-0.563-0.561-0.908c0,0,0-7.968,0-8.356c0-0.645,0-0.797-0.715-1.143
							c-0.688-0.339-8.494-4.243-8.494-4.243c-0.309-0.154-0.573-0.562-0.573-0.907l-0.002-6.743
							c-0.001-0.345,0.251-0.501,0.56-0.347L37.464,62.588z"/>
					</g>
				</g>
				<g>
					<g>
						<path fill="#0071BC" d="M17.821,54.171c0.309-0.154,0.561,0.002,0.56,0.347l-0.012,6.742
							c-0.001,0.345-0.254,0.754-0.562,0.908c0,0-7.807,3.904-8.495,4.243c-0.715,0.346-0.715,0.498-0.715,1.143
							c0,0.388,0,8.356,0,8.356c0,0.345-0.253,0.754-0.561,0.908l-7.092,3.545c-0.309,0.154-0.561-0.002-0.561-0.347V63.495
							c0-0.345,0.253-0.753,0.561-0.907L17.821,54.171z"/>
					</g>
				</g>
				<g>
					<g>
						<path fill="#0071BC" d="M27.928,68.7c0.154-0.078,0.28,0,0.28,0.172v7.359c0,0.173-0.128,0.372-0.285,0.444l-8.433,3.854
							c-0.157,0.072-0.414,0.071-0.57-0.001l-8.379-3.852c-0.157-0.072-0.285-0.272-0.285-0.445v-7.359
							c0-0.173,0.126-0.25,0.28-0.172l8.39,4.255c0.154,0.078,0.406,0.078,0.56,0.001L27.928,68.7z"/>
					</g>
				</g>
				<g>
					<g>
						<path fill="#0071BC" d="M26.945,67.125c0.154,0.077,0.154,0.204,0,0.281l-7.429,3.715c-0.154,0.077-0.407,0.077-0.561,0
							l-7.431-3.715c-0.154-0.077-0.154-0.203,0-0.281l7.431-3.717c0.154-0.077,0.407-0.077,0.561,0L26.945,67.125z"/>
					</g>
				</g>
			</g>
		</g>
		<g>
			<g>
				<g>
					<g>
						<path fill="#0071BC" d="M144.53,64.498c0-0.131-0.107-0.238-0.238-0.238h-0.525c-0.131,0-0.238-0.107-0.238-0.238v-0.208
							c0-0.131,0.107-0.238,0.238-0.238h2.298c0.131,0,0.238,0.107,0.238,0.238v0.208c0,0.131-0.107,0.238-0.238,0.238h-0.525
							c-0.131,0-0.238,0.107-0.238,0.238v2.348c0,0.131-0.107,0.238-0.238,0.238h-0.297c-0.131,0-0.238-0.107-0.238-0.238V64.498z"
							/>
					</g>
					<g>
						<path fill="#0071BC" d="M146.694,63.815c0-0.131,0.107-0.238,0.238-0.238h0.694c0.131,0,0.273,0.101,0.317,0.224l0.649,1.84
							c0.044,0.123,0.081,0.224,0.084,0.224c0.003,0,0.041-0.101,0.084-0.224l0.653-1.84c0.044-0.123,0.187-0.224,0.317-0.224h0.689
							c0.131,0,0.238,0.107,0.238,0.238v3.032c0,0.131-0.107,0.238-0.238,0.238h-0.297c-0.131,0-0.238-0.107-0.238-0.238v-2.214
							c0-0.131-0.002-0.238-0.005-0.238s-0.04,0.101-0.082,0.225l-0.767,2.24c-0.042,0.124-0.184,0.225-0.315,0.225h-0.114
							c-0.131,0-0.271-0.102-0.312-0.226l-0.738-2.238c-0.041-0.124-0.077-0.226-0.079-0.226s-0.005,0.107-0.005,0.238v2.214
							c0,0.131-0.107,0.238-0.238,0.238h-0.297c-0.131,0-0.238-0.107-0.238-0.238V63.815z"/>
					</g>
				</g>
			</g>
			<g>
				<path fill="#0071BC" d="M46.171,79.058h-2.345V67.583c0-1.962,0.528-3.492,1.584-4.59c1.056-1.098,2.457-1.646,4.203-1.646
					c1.862,0,3.305,0.532,4.328,1.597c1.023,1.064,1.534,2.42,1.534,4.066c0,1.031-0.187,1.93-0.561,2.694
					c-0.374,0.765-0.877,1.356-1.509,1.771c-0.632,0.416-1.306,0.723-2.021,0.923c-0.715,0.2-1.464,0.299-2.245,0.299h-1.871v-2.195
					h2.145c1.114,0,1.991-0.337,2.632-1.01c0.64-0.673,0.96-1.517,0.96-2.532c0-0.998-0.295-1.817-0.886-2.457
					c-0.591-0.64-1.434-0.961-2.532-0.961c-1.065,0-1.9,0.362-2.507,1.085c-0.607,0.724-0.91,1.676-0.91,2.856V79.058z"/>
				<path fill="#0071BC" d="M62.73,72.023v2.245c-0.632-0.482-1.406-0.724-2.32-0.724c-0.782,0-1.389,0.154-1.821,0.462
					c-0.433,0.308-0.649,0.745-0.649,1.31c0,1.098,0.815,1.646,2.445,1.646h3.293v-4.765c0-2.012-0.981-3.018-2.944-3.018h-3.991
					v-2.095h4.116c1.613,0,2.852,0.399,3.717,1.197c0.865,0.798,1.297,1.946,1.297,3.443v7.334H60.31
					c-1.414,0-2.536-0.316-3.368-0.948c-0.832-0.632-1.247-1.555-1.247-2.769c0-1.214,0.44-2.137,1.322-2.769
					c0.881-0.632,1.987-0.948,3.318-0.948C61.084,71.624,61.882,71.758,62.73,72.023z"/>
				<path fill="#0071BC" d="M67.275,67.084h2.195v6.261c0,1.347,0.208,2.287,0.624,2.819c0.416,0.533,1.181,0.798,2.295,0.798h2.619
					v-9.879h2.195V78.46c0,2.079-0.545,3.646-1.634,4.702c-1.089,1.056-2.798,1.584-5.126,1.584h-1.796v-2.095h1.572
					c3.044,0,4.64-1.197,4.79-3.592h-2.095c-2.179,0-3.663-0.382-4.453-1.148c-0.79-0.765-1.185-2.32-1.185-4.665V67.084z"/>
				<path fill="#0071BC" d="M79.498,67.084H90.5c1.181,0,2.12,0.224,2.819,0.673c0.715,0.449,1.185,1.032,1.409,1.746
					c0.224,0.715,0.337,1.572,0.337,2.57v6.985H92.87v-6.985c0-1.297-0.391-2.154-1.173-2.57c-0.399-0.216-1.206-0.324-2.42-0.324
					h-1.023v9.879h-2.195V69.18h-4.366v9.879h-2.195V67.084z"/>
				<path fill="#0071BC" d="M104.021,72.023v2.245c-0.632-0.482-1.406-0.724-2.32-0.724c-0.782,0-1.389,0.154-1.821,0.462
					c-0.433,0.308-0.649,0.745-0.649,1.31c0,1.098,0.815,1.646,2.445,1.646h3.293v-4.765c0-2.012-0.981-3.018-2.944-3.018h-3.991
					v-2.095h4.116c1.613,0,2.852,0.399,3.717,1.197c0.865,0.798,1.297,1.946,1.297,3.443v7.334h-5.563
					c-1.414,0-2.536-0.316-3.368-0.948c-0.832-0.632-1.248-1.555-1.248-2.769c0-1.214,0.441-2.137,1.322-2.769
					c0.881-0.632,1.987-0.948,3.318-0.948C102.374,71.624,103.173,71.758,104.021,72.023z"/>
				<path fill="#0071BC" d="M107.962,69.18l4.465-4.465v2.37h3.368v2.095h-3.368v5.139c0,0.582,0.095,1.064,0.287,1.447
					c0.191,0.383,0.47,0.653,0.836,0.811c0.365,0.158,0.711,0.262,1.035,0.312c0.324,0.05,0.727,0.075,1.21,0.075v2.095
					c-1.913,0-3.326-0.366-4.241-1.098c-0.915-0.732-1.372-1.946-1.372-3.642V69.18H107.962z"/>
				<path fill="#0071BC" d="M117.092,79.058v-6.81c0-1.912,0.357-3.234,1.073-3.967c0.349-0.365,0.773-0.64,1.272-0.823
					c0.499-0.183,0.935-0.291,1.31-0.324c0.374-0.033,0.886-0.05,1.534-0.05h2.195v2.095h-2.644c-0.333,0-0.591,0.008-0.773,0.025
					c-0.183,0.017-0.399,0.075-0.648,0.175c-0.25,0.1-0.466,0.258-0.649,0.474c-0.316,0.399-0.474,1.197-0.474,2.395v6.81H117.092z"
					/>
				<path fill="#0071BC" d="M129.932,79.058h-2.195V69.18h-2.046l0.998-2.095h3.243V79.058z M127.637,64.589
					c-0.216-0.282-0.324-0.59-0.324-0.923c0-0.333,0.108-0.636,0.324-0.91c0.216-0.275,0.549-0.412,0.998-0.412
					c0.449,0,0.781,0.137,0.998,0.412c0.216,0.274,0.324,0.578,0.324,0.91c0,0.333-0.108,0.636-0.324,0.91
					c-0.216,0.275-0.549,0.412-0.998,0.412C128.186,64.989,127.853,64.856,127.637,64.589z"/>
				<path fill="#0071BC" d="M139.487,67.084h2.195v0.349c0,2.245-0.898,4.041-2.694,5.388c0.865,0.632,1.53,1.418,1.996,2.358
					c0.465,0.94,0.698,1.933,0.698,2.981v0.898h-2.195V78.16c0-0.931-0.224-1.771-0.674-2.52c-0.449-0.748-1.114-1.322-1.996-1.721
					c-0.865,0.416-1.526,1.015-1.983,1.796c-0.458,0.782-0.686,1.646-0.686,2.594v0.748h-2.195V78.31
					c0-2.328,0.898-4.158,2.694-5.488c-1.796-1.347-2.694-3.193-2.694-5.538v-0.2h2.195v0.2c0,0.948,0.228,1.813,0.686,2.594
					c0.457,0.782,1.118,1.389,1.983,1.821c1.779-0.832,2.669-2.253,2.669-4.266V67.084z"/>
			</g>
		</g>
	</g>
</g>
</svg>
